<svg width="22" height="26" viewBox="0 0 22 26" fill="none" xmlns="http://www.w3.org/2000/svg">
<path d="M10.9062 14.0095C10.933 14.0095 10.9598 14.0095 10.9919 14.0095C11.0027 14.0095 11.0134 14.0095 11.0241 14.0095C11.0401 14.0095 11.0616 14.0095 11.0776 14.0095C12.6469 13.9826 13.9163 13.428 14.8536 12.3674C16.9157 10.0306 16.5729 6.02485 16.5354 5.64258C16.4015 2.77283 15.0518 1.39988 13.9377 0.759163C13.1076 0.279975 12.1381 0.0215366 11.0562 0H11.0187C11.0134 0 11.0027 0 10.9973 0H10.9652C10.3706 0 9.20304 0.0969145 8.08364 0.737627C6.95888 1.37834 5.58775 2.75129 5.45385 5.64258C5.41636 6.02485 5.07358 10.0306 7.13563 12.3674C8.06757 13.428 9.33694 13.9826 10.9062 14.0095ZM6.8839 5.77718C6.8839 5.76103 6.88926 5.74487 6.88926 5.73411C7.066 1.87368 9.7922 1.4591 10.9598 1.4591H10.9812C10.9919 1.4591 11.008 1.4591 11.0241 1.4591C12.4702 1.49141 14.9286 2.08366 15.0946 5.73411C15.0946 5.75026 15.0946 5.76641 15.1 5.77718C15.1053 5.81487 15.4803 9.47608 13.7771 11.4036C13.1022 12.1682 12.2024 12.545 11.0187 12.5558C11.008 12.5558 11.0027 12.5558 10.9919 12.5558C10.9812 12.5558 10.9759 12.5558 10.9652 12.5558C9.78685 12.545 8.88168 12.1682 8.21218 11.4036C6.51434 9.48685 6.87854 5.80948 6.8839 5.77718Z" fill="#212233"/>
<path d="M21.9985 20.6535C21.9985 20.6481 21.9985 20.6427 21.9985 20.6373C21.9985 20.5943 21.9931 20.5512 21.9931 20.5027C21.961 19.4367 21.8914 16.9438 19.5669 16.147C19.5508 16.1416 19.5294 16.1362 19.5133 16.1308C17.0978 15.5116 15.0893 14.1118 15.0679 14.0956C14.7411 13.8641 14.2912 13.9449 14.0609 14.2733C13.8306 14.6017 13.911 15.054 14.2377 15.2855C14.3287 15.3501 16.4604 16.8415 19.1277 17.5307C20.3756 17.9776 20.5149 19.3182 20.5524 20.5458C20.5524 20.5943 20.5524 20.6373 20.5577 20.6804C20.5631 21.165 20.531 21.9134 20.4453 22.3441C19.5776 22.8395 16.1765 24.5516 11.0027 24.5516C5.8502 24.5516 2.42772 22.8341 1.55469 22.3387C1.469 21.908 1.43151 21.1596 1.44222 20.675C1.44222 20.632 1.44757 20.5889 1.44757 20.5404C1.48507 19.3128 1.62432 17.9722 2.87227 17.5253C5.53955 16.8361 7.67123 15.3394 7.76228 15.2801C8.089 15.0486 8.16934 14.5963 7.93903 14.2679C7.70872 13.9395 7.25882 13.8587 6.93211 14.0902C6.91068 14.1064 4.9129 15.5063 2.48664 16.1254C2.46521 16.1308 2.44914 16.1362 2.43308 16.1416C0.108578 16.9438 0.0389498 19.4367 0.00681382 20.4974C0.00681382 20.5458 0.0068137 20.5889 0.00145771 20.632C0.00145771 20.6373 0.00145771 20.6427 0.00145771 20.6481C-0.00389828 20.9281 -0.00925415 22.3657 0.274613 23.0871C0.328173 23.2271 0.424581 23.3456 0.553125 23.4263C0.713804 23.534 4.56476 25.9999 11.008 25.9999C17.4513 25.9999 21.3022 23.5286 21.4629 23.4263C21.5861 23.3456 21.6879 23.2271 21.7414 23.0871C22.0092 22.371 22.0039 20.9335 21.9985 20.6535Z" fill="#212233"/>
</svg>
