<svg width="60" height="60" viewBox="0 0 60 60" fill="none" xmlns="http://www.w3.org/2000/svg">
<path d="M51.2121 8.78788C45.5429 3.11869 38.0177 0 30 0C21.9823 0 14.4571 3.11869 8.78788 8.78788C3.11869 14.4571 0 21.9823 0 30C0 38.0177 3.11869 45.5429 8.78788 51.2121C14.4571 56.8813 21.9823 60 30 60C38.0177 60 45.5429 56.8813 51.2121 51.2121C56.8813 45.5429 60 38.0177 60 30C60 21.9823 56.8813 14.4571 51.2121 8.78788ZM48.8005 48.8005C43.7753 53.8258 37.096 56.5909 30 56.5909C22.904 56.5909 16.2247 53.8258 11.1995 48.8005C0.833333 38.4343 0.833333 21.5657 11.1995 11.1995C16.2247 6.17424 22.904 3.40909 30 3.40909C37.096 3.40909 43.7753 6.17424 48.8005 11.1995C59.1667 21.5657 59.1667 38.4343 48.8005 48.8005Z" fill="#A6A7AD"/>
<path d="M43.2196 16.7802C42.5504 16.111 41.4772 16.111 40.808 16.7802L29.9999 27.5883L19.1918 16.7802C18.5226 16.111 17.4494 16.111 16.7802 16.7802C16.111 17.4494 16.111 18.5226 16.7802 19.1918L27.5883 29.9999L16.7802 40.808C16.111 41.4772 16.111 42.5504 16.7802 43.2196C17.1085 43.5479 17.5504 43.7247 17.9797 43.7247C18.409 43.7247 18.8509 43.5605 19.1792 43.2196L29.9873 32.4115L40.7954 43.2196C41.1236 43.5479 41.5656 43.7247 41.9949 43.7247C42.4368 43.7247 42.8661 43.5605 43.1944 43.2196C43.8636 42.5504 43.8636 41.4772 43.1944 40.808L32.4115 29.9999L43.2196 19.1918C43.8888 18.5226 43.8888 17.4494 43.2196 16.7802Z" fill="#A6A7AD"/>
</svg>
