<svg width="38" height="37" viewBox="0 0 38 37" fill="none" xmlns="http://www.w3.org/2000/svg">
<path d="M31.9993 18.3848C31.9993 14.9105 30.6491 11.6491 28.1924 9.19239C25.7357 6.73567 22.4742 5.38544 19 5.38544C15.5258 5.38544 12.2643 6.73567 9.80761 9.19239C7.35089 11.6491 6.00066 14.9105 6.00066 18.3848C6.00066 21.859 7.35089 25.1204 9.80761 27.5772C12.2643 30.0339 15.5258 31.3841 19 31.3841C22.4742 31.3841 25.7357 30.0339 28.1924 27.5772C30.6491 25.1204 31.9993 21.859 31.9993 18.3848ZM19 29.9062C15.9204 29.9062 13.0265 28.7069 10.8522 26.5326C8.67791 24.3583 7.47857 21.4644 7.47856 18.3848C7.47856 12.0321 12.6473 6.86334 19 6.86334C22.0796 6.86334 24.9735 8.06268 27.1478 10.237C29.3221 12.4113 30.5214 15.3052 30.5214 18.3848C30.5214 24.7374 25.3527 29.9062 19 29.9062Z" fill="black"/>
<path d="M27.1014 18.3845C27.1014 17.9744 26.7725 17.6456 26.3624 17.6456L19.739 17.6456L19.739 11.0221C19.739 10.612 19.4101 10.2832 19 10.2832C18.5899 10.2832 18.261 10.612 18.261 11.0221L18.261 17.6456L11.6376 17.6456C11.2275 17.6456 10.8986 17.9744 10.8986 18.3845C10.8986 18.5857 10.9799 18.7753 11.1114 18.9068C11.243 19.0384 11.4287 19.1235 11.6337 19.1196L18.2572 19.1196L18.2572 25.7431C18.2572 25.9443 18.3384 26.1338 18.47 26.2654C18.6054 26.4008 18.7872 26.482 18.9923 26.4782C19.4024 26.4782 19.7312 26.1493 19.7312 25.7392L19.739 19.1235L26.3624 19.1235C26.7725 19.1235 27.1014 18.7946 27.1014 18.3845Z" fill="black"/>
</svg>
