<svg width="34" height="34" viewBox="0 0 34 34" fill="none" xmlns="http://www.w3.org/2000/svg">
<path fill-rule="evenodd" clip-rule="evenodd" d="M34 24.3664V33.0133C34 34.3691 33.1082 34.1164 32.5132 33.5077C30.7196 32.0038 28.6788 30.3059 26.3906 28.4139C22.1334 28.4139 14.092 28.4139 2.26667 28.4139C1.01482 28.4139 0 27.3991 0 26.1473V2.26664C0 1.01481 1.01482 0 2.26667 0H31.7333C32.9852 0 34 1.01481 34 2.26664V24.3664ZM16.2273 17.6069H25.0584C25.9729 17.6069 26.7143 16.9274 26.7143 16.0891C26.7143 15.2508 25.9729 14.5712 25.0584 14.5712H16.2273C15.3128 14.5712 14.5714 15.2508 14.5714 16.0891C14.5714 16.9274 15.3128 17.6069 16.2273 17.6069ZM8.81955 11.5356H25.1805C26.0276 11.5356 26.7143 10.856 26.7143 10.0177C26.7143 9.17945 26.0276 8.49989 25.1805 8.49989H8.81955C7.97244 8.49989 7.28571 9.17945 7.28571 10.0177C7.28571 10.856 7.97244 11.5356 8.81955 11.5356Z" fill="white"/>
</svg>
