<svg width="16" height="20" viewBox="0 0 16 20" fill="none" xmlns="http://www.w3.org/2000/svg">
<path d="M15.9619 19.5518L12.3185 12.9893H3.68173L0.0389198 19.5518C-0.0129733 19.6446 -0.0129733 19.758 0.0389198 19.8507C0.0897017 19.9427 0.18408 19.9998 0.286866 19.9998H15.7129C15.8155 19.9998 15.91 19.9427 15.9619 19.8507C16.0127 19.758 16.0127 19.6446 15.9619 19.5518Z" fill="#00997C"/>
<g opacity="0.2">
<path opacity="0.2" d="M2.12998 19.8507C2.07809 19.758 2.07809 19.6445 2.12998 19.5518L5.77275 12.9893H3.68173L0.0389198 19.5518C-0.0129733 19.6445 -0.0129733 19.758 0.0389198 19.8507C0.0897017 19.9427 0.18408 19.9997 0.286866 19.9997H2.37792C2.2751 19.9998 2.18072 19.9427 2.12998 19.8507Z" fill="#414042"/>
</g>
<path d="M13.4516 13.3832L10.4748 8.02148H5.52501L2.54825 13.3832C2.49743 13.4759 2.49743 13.5894 2.54825 13.6821C2.60025 13.774 2.69459 13.8312 2.79727 13.8312H13.2026C13.3052 13.8312 13.3997 13.774 13.4517 13.6821C13.5022 13.5894 13.5022 13.4759 13.4516 13.3832Z" fill="#00B494"/>
<g opacity="0.2">
<path opacity="0.2" d="M4.56455 13.6821C4.51373 13.5894 4.51373 13.4759 4.56455 13.3832L7.54131 8.02148H5.52488L2.54812 13.3832C2.49731 13.4759 2.49731 13.5894 2.54812 13.6821C2.60013 13.774 2.69447 13.8312 2.79714 13.8312H4.8136C4.71093 13.8312 4.61655 13.774 4.56455 13.6821Z" fill="#414042"/>
</g>
<path d="M4.5723 8.77951C4.46833 8.77951 4.37399 8.72228 4.32324 8.63036C4.27124 8.53759 4.27124 8.42361 4.32324 8.33142L7.75067 2.15598C7.80264 2.06328 7.89713 2.00684 7.99976 2.00684C8.10244 2.00684 8.19697 2.06328 8.24886 2.15598L11.6764 8.33142C11.7282 8.42357 11.7282 8.53759 11.6764 8.63036C11.6255 8.72228 11.5299 8.77951 11.4273 8.77951H4.5723Z" fill="#00997C"/>
<g opacity="0.2">
<path opacity="0.2" d="M5.99797 8.63036C5.94597 8.53759 5.94597 8.42361 5.99797 8.33142L8.83709 3.2159L8.24886 2.15598C8.19696 2.06328 8.10248 2.00684 7.99976 2.00684C7.89716 2.00684 7.80264 2.06328 7.75067 2.15598L4.32324 8.33142C4.27124 8.42357 4.27124 8.53759 4.32324 8.63036C4.37399 8.72228 4.46833 8.77951 4.5723 8.77951H6.24699C6.14306 8.77951 6.04872 8.72228 5.99797 8.63036Z" fill="#414042"/>
</g>
<path d="M8.99478 3.96712C8.95656 3.96712 8.91863 3.96048 8.88207 3.94716L7.99063 3.62298L7.09893 3.94716C7.06192 3.96048 7.02392 3.96712 6.98584 3.96712C6.91406 3.96712 6.84298 3.94348 6.78335 3.89805C6.69215 3.82844 6.63919 3.71645 6.64141 3.59821L6.65952 2.60836L6.09021 1.81918C6.02217 1.72477 6.00232 1.60157 6.03725 1.4891C6.0724 1.37641 6.15715 1.28907 6.26482 1.25442L7.16789 0.96715L7.70768 0.155C7.77231 0.0579689 7.87754 0 7.99067 0C8.1029 0 8.20876 0.0579689 8.27287 0.154961L8.81303 0.967111L9.71581 1.25438C9.82374 1.28903 9.90871 1.37637 9.94338 1.48907C9.9782 1.60153 9.95838 1.72473 9.89038 1.81914L9.32151 2.60833L9.33955 3.59817C9.34163 3.71637 9.2887 3.82841 9.19743 3.89802C9.1378 3.94325 9.06642 3.96712 8.99478 3.96712Z" fill="#F0D355"/>
<path d="M6.90203 7.89434C7.16663 7.89434 7.38114 7.66812 7.38114 7.38906C7.38114 7.11001 7.16663 6.88379 6.90203 6.88379C6.63742 6.88379 6.42291 7.11001 6.42291 7.38906C6.42291 7.66812 6.63742 7.89434 6.90203 7.89434Z" fill="#F0D355"/>
<path d="M9.09801 7.89434C9.36262 7.89434 9.57712 7.66812 9.57712 7.38906C9.57712 7.11001 9.36262 6.88379 9.09801 6.88379C8.8334 6.88379 8.6189 7.11001 8.6189 7.38906C8.6189 7.66812 8.8334 7.89434 9.09801 7.89434Z" fill="white"/>
<path d="M4.64635 13.0311C4.91096 13.0311 5.12546 12.8048 5.12546 12.5258C5.12546 12.2467 4.91096 12.0205 4.64635 12.0205C4.38174 12.0205 4.16724 12.2467 4.16724 12.5258C4.16724 12.8048 4.38174 13.0311 4.64635 13.0311Z" fill="#F0D355"/>
<path d="M6.88225 13.0311C7.14686 13.0311 7.36136 12.8048 7.36136 12.5258C7.36136 12.2467 7.14686 12.0205 6.88225 12.0205C6.61764 12.0205 6.40314 12.2467 6.40314 12.5258C6.40314 12.8048 6.61764 13.0311 6.88225 13.0311Z" fill="white"/>
<path d="M9.11772 13.0311C9.38233 13.0311 9.59684 12.8048 9.59684 12.5258C9.59684 12.2467 9.38233 12.0205 9.11772 12.0205C8.85312 12.0205 8.63861 12.2467 8.63861 12.5258C8.63861 12.8048 8.85312 13.0311 9.11772 13.0311Z" fill="#F0D355"/>
<path d="M11.3536 13.0311C11.6182 13.0311 11.8327 12.8048 11.8327 12.5258C11.8327 12.2467 11.6182 12.0205 11.3536 12.0205C11.089 12.0205 10.8745 12.2467 10.8745 12.5258C10.8745 12.8048 11.089 13.0311 11.3536 13.0311Z" fill="white"/>
<path d="M2.41051 19.0525C2.67512 19.0525 2.88962 18.8263 2.88962 18.5473C2.88962 18.2682 2.67512 18.042 2.41051 18.042C2.1459 18.042 1.9314 18.2682 1.9314 18.5473C1.9314 18.8263 2.1459 19.0525 2.41051 19.0525Z" fill="#F0D355"/>
<path d="M4.64635 19.0525C4.91096 19.0525 5.12546 18.8263 5.12546 18.5473C5.12546 18.2682 4.91096 18.042 4.64635 18.042C4.38174 18.042 4.16724 18.2682 4.16724 18.5473C4.16724 18.8263 4.38174 19.0525 4.64635 19.0525Z" fill="white"/>
<path d="M6.88225 19.0525C7.14686 19.0525 7.36136 18.8263 7.36136 18.5473C7.36136 18.2682 7.14686 18.042 6.88225 18.042C6.61764 18.042 6.40314 18.2682 6.40314 18.5473C6.40314 18.8263 6.61764 19.0525 6.88225 19.0525Z" fill="#F0D355"/>
<path d="M9.11772 19.0525C9.38233 19.0525 9.59684 18.8263 9.59684 18.5473C9.59684 18.2682 9.38233 18.042 9.11772 18.042C8.85312 18.042 8.63861 18.2682 8.63861 18.5473C8.63861 18.8263 8.85312 19.0525 9.11772 19.0525Z" fill="white"/>
<path d="M11.3536 19.0525C11.6182 19.0525 11.8327 18.8263 11.8327 18.5473C11.8327 18.2682 11.6182 18.042 11.3536 18.042C11.089 18.042 10.8745 18.2682 10.8745 18.5473C10.8745 18.8263 11.089 19.0525 11.3536 19.0525Z" fill="#F0D355"/>
<path d="M13.5895 19.0525C13.8541 19.0525 14.0686 18.8263 14.0686 18.5473C14.0686 18.2682 13.8541 18.042 13.5895 18.042C13.3249 18.042 13.1104 18.2682 13.1104 18.5473C13.1104 18.8263 13.3249 19.0525 13.5895 19.0525Z" fill="white"/>
<g opacity="0.1">
<path opacity="0.1" d="M7.46301 2.41907C7.08379 2.01914 6.84373 1.54602 6.75802 1.09766L6.2648 1.25457C6.15712 1.28922 6.07237 1.37656 6.03722 1.48926C6.00233 1.60172 6.02218 1.72492 6.09019 1.81934L6.65946 2.60852L6.64135 3.59836C6.63909 3.71657 6.69209 3.8286 6.78328 3.89821C6.84296 3.94364 6.91403 3.96727 6.98578 3.96727C7.02386 3.96727 7.06186 3.96063 7.09886 3.94731L7.99057 3.62313L8.88201 3.94731C8.91853 3.96063 8.95646 3.96727 8.99472 3.96727C9.06636 3.96727 9.13773 3.9434 9.19729 3.89821C9.28856 3.8286 9.34149 3.71661 9.33942 3.59836L9.33164 3.17196C8.76322 3.29176 8.03431 3.02153 7.46301 2.41907Z" fill="#414042"/>
</g>
</svg>
