<svg width="19" height="20" viewBox="0 0 19 20" fill="none" xmlns="http://www.w3.org/2000/svg">
<path d="M2.46296 5C3.70113 5 4.72607 4.06643 4.89778 2.85714H18.6481C18.8427 2.85714 19 2.6975 19 2.5C19 2.3025 18.8427 2.14286 18.6481 2.14286H4.89778C4.72607 0.933571 3.70113 0 2.46296 0C1.10481 0 0 1.12179 0 2.5C0 3.87821 1.10481 5 2.46296 5ZM2.46296 0.714286C3.43302 0.714286 4.22222 1.51536 4.22222 2.5C4.22222 3.48464 3.43302 4.28571 2.46296 4.28571C1.49291 4.28571 0.703704 3.48464 0.703704 2.5C0.703704 1.51536 1.49291 0.714286 2.46296 0.714286Z" fill="black"/>
<path d="M16.537 15C15.2989 15 14.2739 15.9336 14.1022 17.1429H0.351852C0.15763 17.1429 0 17.3025 0 17.5C0 17.6975 0.15763 17.8571 0.351852 17.8571H14.1022C14.2739 19.0664 15.2989 20 16.537 20C17.8948 20 19 18.8782 19 17.5C19 16.1218 17.8948 15 16.537 15ZM16.537 19.2857C15.567 19.2857 14.7778 18.4846 14.7778 17.5C14.7778 16.5154 15.567 15.7143 16.537 15.7143C17.5071 15.7143 18.2963 16.5154 18.2963 17.5C18.2963 18.4846 17.5071 19.2857 16.537 19.2857Z" fill="black"/>
<path d="M18.6481 9.64286H12.0924C11.9531 8.35643 10.8768 7.35214 9.57283 7.35214C8.26887 7.35214 7.19256 8.35679 7.05322 9.64286H0.351852C0.15763 9.64286 0 9.8025 0 10C0 10.1975 0.15763 10.3571 0.351852 10.3571H7.07539C7.27841 11.5714 8.31954 12.5 9.57283 12.5C10.8261 12.5 11.8669 11.5714 12.0699 10.3571H18.6481C18.8427 10.3571 19 10.1975 19 10C19 9.8025 18.8427 9.64286 18.6481 9.64286ZM9.57283 11.7857C8.56267 11.7857 7.74074 10.9514 7.74074 9.92607C7.74074 8.90071 8.56267 8.06643 9.57283 8.06643C10.583 8.06643 11.4049 8.90071 11.4049 9.92607C11.4049 10.9514 10.583 11.7857 9.57283 11.7857Z" fill="black"/>
</svg>
