<svg width="30" height="30" viewBox="0 0 30 30" fill="none" xmlns="http://www.w3.org/2000/svg">
<rect width="30" height="30" fill="#FDA9BD"/>
<path d="M11.4895 15.489H13.117V22.2581C13.117 22.3917 13.2242 22.5 13.3564 22.5H16.1159C16.2482 22.5 16.3554 22.3917 16.3554 22.2581V15.5209H18.2263C18.348 15.5209 18.4503 15.4287 18.4642 15.3066L18.7484 12.8145C18.7562 12.746 18.7347 12.6773 18.6893 12.6259C18.6438 12.5744 18.5788 12.5449 18.5105 12.5449H16.3555V10.9828C16.3555 10.5119 16.6064 10.2731 17.1015 10.2731C17.172 10.2731 18.5105 10.2731 18.5105 10.2731C18.6428 10.2731 18.75 10.1648 18.75 10.0312V7.74373C18.75 7.61008 18.6428 7.50179 18.5105 7.50179H16.5687C16.555 7.50111 16.5245 7.5 16.4797 7.5C16.1428 7.5 14.9716 7.56682 14.0465 8.42666C13.0215 9.3795 13.1639 10.5204 13.198 10.7182V12.5449H11.4895C11.3572 12.5449 11.25 12.6532 11.25 12.7868V15.247C11.25 15.3807 11.3572 15.489 11.4895 15.489Z" fill="white"/>
</svg>
