<svg width="16" height="16" viewBox="0 0 16 16" fill="none" xmlns="http://www.w3.org/2000/svg">
<path d="M14.7565 6.27787C15.0462 5.9912 15.1485 5.57047 15.0235 5.17987C14.8985 4.78928 14.5721 4.50996 14.1717 4.45093L10.6708 3.93453C10.6021 3.92441 10.5427 3.8806 10.5119 3.81734L8.94625 0.597074C8.76722 0.22878 8.40465 0 8.00006 0C7.59547 0 7.2329 0.22878 7.05387 0.597074L5.48821 3.81738C5.45743 3.8806 5.39806 3.92441 5.32931 3.93456L1.82843 4.45093C1.42805 4.50996 1.10171 4.78928 0.976648 5.17987C0.851585 5.57047 0.953898 5.9912 1.24365 6.27787L3.77693 8.78452C3.82665 8.83375 3.84937 8.90465 3.83762 8.97415L3.23959 12.5136C3.17121 12.9184 3.33202 13.3198 3.65934 13.5612C3.98665 13.8026 4.41253 13.8338 4.77059 13.6428L7.90187 11.9717C7.96337 11.9388 8.03678 11.9388 8.09831 11.9717L11.2296 13.6428C11.3854 13.7259 11.5539 13.767 11.7216 13.7669C11.9394 13.7669 12.1559 13.6976 12.3408 13.5611C12.6681 13.3197 12.8289 12.9183 12.7605 12.5135L12.1625 8.97412C12.1508 8.90462 12.1735 8.83372 12.2232 8.78449L14.7565 6.27787ZM11.3306 9.11903L11.9286 12.6585C11.9486 12.777 11.8766 12.8445 11.8447 12.868C11.8128 12.8915 11.7272 12.9402 11.6224 12.8843L8.49112 11.2132C8.3374 11.1312 8.16878 11.0901 8.00012 11.0901C7.83147 11.0901 7.66281 11.1312 7.50912 11.2132L4.37784 12.8842C4.27303 12.9401 4.18749 12.8915 4.15559 12.8679C4.12368 12.8444 4.05162 12.7769 4.07165 12.6585L4.66968 9.11903C4.7284 8.77151 4.61499 8.41711 4.36621 8.17098L1.83293 5.66433C1.74815 5.5804 1.76734 5.48279 1.77955 5.44472C1.79171 5.40662 1.83274 5.31618 1.9499 5.29893L5.45075 4.78252C5.79446 4.73183 6.0915 4.51282 6.24525 4.19658L7.8109 0.97628C7.86331 0.86852 7.96069 0.856878 8.00015 0.856878C8.03956 0.856878 8.13694 0.868488 8.18937 0.97628V0.976312L9.75503 4.19661C9.90875 4.51285 10.2058 4.73186 10.5495 4.78255L14.0504 5.29896C14.1675 5.31621 14.2085 5.40665 14.2207 5.44475C14.2329 5.48285 14.2521 5.58049 14.1673 5.66436L11.634 8.17101C11.3853 8.41711 11.2719 8.77151 11.3306 9.11903Z" fill="#212233"/>
<path d="M12.9307 0.596492C12.7421 0.457423 12.4782 0.499867 12.3412 0.691278L11.8931 1.31722C11.7561 1.50863 11.7979 1.77659 11.9865 1.91566C12.0615 1.97088 12.1483 1.9975 12.2343 1.9975C12.3648 1.9975 12.4935 1.93624 12.576 1.8209L13.0241 1.19496C13.1611 1.00352 13.1193 0.735562 12.9307 0.596492Z" fill="#212233"/>
<path d="M4.105 1.31522L3.65697 0.689279C3.52 0.497932 3.25606 0.455487 3.06743 0.594494C2.87887 0.733563 2.83706 1.00152 2.97406 1.19293L3.42209 1.81887C3.50468 1.93431 3.63337 1.99553 3.76393 1.99553C3.84997 1.99553 3.93678 1.96892 4.01165 1.91366C4.20022 1.77462 4.24203 1.50666 4.105 1.31522Z" fill="#212233"/>
<path d="M1.5485 9.61255C1.47646 9.38755 1.23837 9.26437 1.01665 9.33749L0.291744 9.57661C0.070025 9.64973 -0.0512564 9.89148 0.020775 10.1165C0.0787125 10.2976 0.244181 10.4127 0.422088 10.4127C0.465307 10.4127 0.509275 10.4059 0.552619 10.3916L1.27753 10.1524C1.49921 10.0793 1.62053 9.83762 1.5485 9.61255Z" fill="#212233"/>
<path d="M8.00013 14.3691C7.76703 14.3691 7.57806 14.561 7.57806 14.7976V15.5713C7.57806 15.808 7.76703 15.9998 8.00013 15.9998C8.23322 15.9998 8.42219 15.808 8.42219 15.5713V14.7976C8.42219 14.5609 8.23325 14.3691 8.00013 14.3691Z" fill="#212233"/>
<path d="M15.7083 9.57659L14.9833 9.33747C14.7617 9.26441 14.5235 9.38749 14.4515 9.61256C14.3795 9.83763 14.5007 10.0793 14.7225 10.1524L15.4474 10.3916C15.4907 10.4058 15.5347 10.4126 15.5779 10.4126C15.7558 10.4126 15.9213 10.2975 15.9792 10.1164C16.0513 9.8914 15.9299 9.64971 15.7083 9.57659Z" fill="#212233"/>
</svg>
