<svg width="18" height="20" viewBox="0 0 18 20" fill="none" xmlns="http://www.w3.org/2000/svg">
<path d="M17.4383 2.87829H13.2275V2.19984C13.2275 0.986842 12.2288 0 11.0014 0H6.99861C5.77115 0 4.77254 0.986842 4.77254 2.19984V2.87829H0.56172C0.249653 2.87829 0 3.125 0 3.43339C0 3.74178 0.249653 3.98849 0.56172 3.98849H1.57698V17.0312C1.57698 18.6678 2.9251 20 4.58114 20H13.4189C15.0749 20 16.423 18.6678 16.423 17.0312V3.98849H17.4383C17.7503 3.98849 18 3.74178 18 3.43339C18 3.125 17.7503 2.87829 17.4383 2.87829ZM5.89598 2.19984C5.89598 1.59951 6.39112 1.1102 6.99861 1.1102H11.0014C11.6089 1.1102 12.104 1.59951 12.104 2.19984V2.87829H5.89598V2.19984ZM15.2996 17.0312C15.2996 18.0551 14.4549 18.8898 13.4189 18.8898H4.58114C3.54508 18.8898 2.70042 18.0551 2.70042 17.0312V3.98849H15.3037V17.0312H15.2996Z" fill="#A6A7AD"/>
<path d="M8.99971 16.8996C9.31177 16.8996 9.56143 16.6529 9.56143 16.3445V6.53361C9.56143 6.22523 9.31177 5.97852 8.99971 5.97852C8.68764 5.97852 8.43799 6.22523 8.43799 6.53361V16.3404C8.43799 16.6487 8.68764 16.8996 8.99971 16.8996Z" fill="#A6A7AD"/>
<path d="M5.33418 16.2867C5.64625 16.2867 5.8959 16.04 5.8959 15.7317V7.14201C5.8959 6.83362 5.64625 6.58691 5.33418 6.58691C5.02211 6.58691 4.77246 6.83362 4.77246 7.14201V15.7317C4.77246 16.04 5.02628 16.2867 5.33418 16.2867Z" fill="#A6A7AD"/>
<path d="M12.6657 16.2867C12.9778 16.2867 13.2274 16.04 13.2274 15.7317V7.14201C13.2274 6.83362 12.9778 6.58691 12.6657 6.58691C12.3537 6.58691 12.104 6.83362 12.104 7.14201V15.7317C12.104 16.04 12.3537 16.2867 12.6657 16.2867Z" fill="#A6A7AD"/>
</svg>
