<svg width="12" height="12" viewBox="0 0 12 12" fill="none" xmlns="http://www.w3.org/2000/svg">
<path d="M11.0629 1.72697H8.53645V1.3199C8.53645 0.592105 7.93728 0 7.20081 0H4.79914C4.06267 0 3.4635 0.592105 3.4635 1.3199V1.72697H0.937008C0.749768 1.72697 0.599976 1.875 0.599976 2.06003C0.599976 2.24507 0.749768 2.39309 0.937008 2.39309H1.54616V10.2188C1.54616 11.2007 2.35504 12 3.34866 12H8.65129C9.64491 12 10.4538 11.2007 10.4538 10.2188V2.39309H11.0629C11.2502 2.39309 11.4 2.24507 11.4 2.06003C11.4 1.875 11.2502 1.72697 11.0629 1.72697ZM4.13756 1.3199C4.13756 0.959704 4.43465 0.666118 4.79914 0.666118H7.20081C7.5653 0.666118 7.86239 0.959704 7.86239 1.3199V1.72697H4.13756V1.3199ZM9.77973 10.2188C9.77973 10.8331 9.27293 11.3339 8.65129 11.3339H3.34866C2.72702 11.3339 2.22023 10.8331 2.22023 10.2188V2.39309H9.78222V10.2188H9.77973Z" fill="white"/>
<path d="M5.99987 10.1398C6.18711 10.1398 6.33691 9.99176 6.33691 9.80673V3.92022C6.33691 3.73518 6.18711 3.58716 5.99987 3.58716C5.81263 3.58716 5.66284 3.73518 5.66284 3.92022V9.80426C5.66284 9.9893 5.81263 10.1398 5.99987 10.1398Z" fill="white"/>
<path d="M3.80053 9.77229C3.98777 9.77229 4.13756 9.62427 4.13756 9.43923V4.28545C4.13756 4.10042 3.98777 3.95239 3.80053 3.95239C3.61329 3.95239 3.4635 4.10042 3.4635 4.28545V9.43923C3.4635 9.62427 3.61579 9.77229 3.80053 9.77229Z" fill="white"/>
<path d="M8.19958 9.77229C8.38682 9.77229 8.53661 9.62427 8.53661 9.43923V4.28545C8.53661 4.10042 8.38682 3.95239 8.19958 3.95239C8.01234 3.95239 7.86255 4.10042 7.86255 4.28545V9.43923C7.86255 9.62427 8.01234 9.77229 8.19958 9.77229Z" fill="white"/>
</svg>
