<svg width="30" height="30" viewBox="0 0 30 30" fill="none" xmlns="http://www.w3.org/2000/svg">
<rect width="30" height="30" fill="#FDA9BD"/>
<path d="M18.1748 7.5H11.8294C9.44049 7.5 7.5 9.43994 7.5 11.8282V18.1676C7.5 20.5601 9.44049 22.5 11.8294 22.5H18.1706C20.5637 22.5 22.5 20.5601 22.5 18.1718V11.8282C22.5042 9.43994 20.5637 7.5 18.1748 7.5ZM21.1211 18.2807C21.1211 19.8687 19.8344 21.155 18.246 21.155H11.7582C10.1697 21.155 8.88307 19.8687 8.88307 18.2807V11.7947C8.88307 10.2067 10.1697 8.92039 11.7582 8.92039H18.2502C19.8386 8.92039 21.1253 10.2067 21.1253 11.7947V18.2807H21.1211Z" fill="white"/>
<path d="M15.0021 11.1455C12.852 11.1455 11.1085 12.8885 11.1085 15.038C11.1085 17.1874 12.852 18.9304 15.0021 18.9304C17.1521 18.9304 18.8956 17.1874 18.8956 15.038C18.8956 12.8885 17.1521 11.1455 15.0021 11.1455ZM15.0021 17.5603C13.6064 17.5603 12.479 16.429 12.479 15.038C12.479 13.6427 13.6106 12.5156 15.0021 12.5156C16.3977 12.5156 17.5251 13.6469 17.5251 15.038C17.5251 16.4332 16.3977 17.5603 15.0021 17.5603Z" fill="white"/>
<path d="M19.0256 11.9038C19.5256 11.9038 19.9309 11.4986 19.9309 10.9988C19.9309 10.4989 19.5256 10.0938 19.0256 10.0938C18.5257 10.0938 18.1204 10.4989 18.1204 10.9988C18.1204 11.4986 18.5257 11.9038 19.0256 11.9038Z" fill="white"/>
</svg>
