<svg width="215" height="18" viewBox="0 0 215 18" fill="none" xmlns="http://www.w3.org/2000/svg">
<path d="M16.4121 17.7017L16.3864 7.25967L11.0788 15.8619H9.19802L3.91624 7.48343V17.7017H0V0.298342H3.45248L10.2028 11.1133L16.8501 0.298342H20.2769L20.3284 17.7017H16.4121Z" fill="#212233"/>
<path d="M33.2643 11.5359V17.7017H29.0904V11.4862L22.1082 0.298342H26.5397L31.3577 8.03039L36.1757 0.298342H40.2723L33.2643 11.5359Z" fill="#212233"/>
<path d="M41.8426 0.298342H50.0358C51.9939 0.298342 53.7201 0.662983 55.2145 1.39227C56.726 2.10497 57.894 3.11602 58.7185 4.42541C59.5601 5.73481 59.9809 7.25967 59.9809 9C59.9809 10.7403 59.5601 12.2652 58.7185 13.5746C57.894 14.884 56.726 15.9033 55.2145 16.6326C53.7201 17.3453 51.9939 17.7017 50.0358 17.7017H41.8426V0.298342ZM49.8296 14.395C51.6332 14.395 53.0674 13.9144 54.1323 12.953C55.2145 11.9751 55.7555 10.6575 55.7555 9C55.7555 7.34254 55.2145 6.03315 54.1323 5.07182C53.0674 4.09392 51.6332 3.60497 49.8296 3.60497H46.0164V14.395H49.8296Z" fill="#212233"/>
<path d="M74.6198 17.7017L71.1415 12.8536H67.3026V17.7017H63.1287V0.298342H70.9354C72.5328 0.298342 73.9155 0.555248 75.0835 1.06906C76.2687 1.58287 77.179 2.31215 77.8146 3.25691C78.4501 4.20166 78.7679 5.32044 78.7679 6.61326C78.7679 7.90608 78.4415 9.02486 77.7888 9.96961C77.1533 10.8978 76.2429 11.6105 75.0577 12.1077L79.1028 17.7017H74.6198ZM74.5424 6.61326C74.5424 5.63536 74.2161 4.8895 73.5634 4.37569C72.9107 3.8453 71.9574 3.58011 70.7035 3.58011H67.3026V9.64641H70.7035C71.9574 9.64641 72.9107 9.38122 73.5634 8.85083C74.2161 8.32044 74.5424 7.57459 74.5424 6.61326Z" fill="#212233"/>
<path d="M96.0393 14.4696V17.7017H82.0748V0.298342H95.7044V3.53039H86.2229V7.30939H94.5965V10.442H86.2229V14.4696H96.0393Z" fill="#212233"/>
<path d="M111.238 13.9724H102.864L101.267 17.7017H96.99L105.029 0.298342H109.151L117.215 17.7017H112.835L111.238 13.9724ZM109.924 10.9144L107.064 4.25138L104.204 10.9144H109.924Z" fill="#212233"/>
<path d="M135.499 17.7017L135.473 7.25967L130.165 15.8619H128.285L123.003 7.48343V17.7017H119.086V0.298342H122.539L129.289 11.1133L135.937 0.298342H139.363L139.415 17.7017H135.499Z" fill="#212233"/>
<path d="M152.325 18C150.487 18 148.821 17.6188 147.327 16.8564C145.849 16.0773 144.681 15.0083 143.823 13.6492C142.981 12.2735 142.56 10.7238 142.56 9C142.56 7.27624 142.981 5.73481 143.823 4.37569C144.681 3 145.849 1.93094 147.327 1.16851C148.821 0.389503 150.496 0 152.351 0C153.914 0 155.322 0.265193 156.576 0.79558C157.847 1.32597 158.912 2.0884 159.771 3.08287L157.092 5.46961C155.872 4.1105 154.36 3.43094 152.557 3.43094C151.44 3.43094 150.444 3.67127 149.568 4.15193C148.692 4.61602 148.005 5.27072 147.507 6.11602C147.026 6.96133 146.786 7.92265 146.786 9C146.786 10.0773 147.026 11.0387 147.507 11.884C148.005 12.7293 148.692 13.3923 149.568 13.8729C150.444 14.337 151.44 14.5691 152.557 14.5691C154.36 14.5691 155.872 13.8812 157.092 12.5055L159.771 14.8923C158.912 15.9033 157.847 16.674 156.576 17.2044C155.305 17.7348 153.888 18 152.325 18Z" fill="#212233"/>
<path d="M174.115 13.9724H165.741L164.144 17.7017H159.867L167.906 0.298342H172.028L180.092 17.7017H175.712L174.115 13.9724ZM172.801 10.9144L169.941 4.25138L167.081 10.9144H172.801Z" fill="#212233"/>
<path d="M188.534 10.8646L186.112 13.3011V17.7017H181.964V0.298342H186.112V8.42818L194.099 0.298342H198.736L191.265 8.05525L199.174 17.7017H194.305L188.534 10.8646Z" fill="#212233"/>
<path d="M215 14.4696V17.7017H201.036V0.298342H214.665V3.53039H205.184V7.30939H213.557V10.442H205.184V14.4696H215Z" fill="#212233"/>
</svg>
