<svg width="215" height="18" viewBox="0 0 215 18" fill="none" xmlns="http://www.w3.org/2000/svg">
<path d="M16.4121 17.7017L16.3864 7.25967L11.0788 15.8619H9.19802L3.91624 7.48343V17.7017H0V0.298342H3.45248L10.2028 11.1133L16.8501 0.298342H20.2769L20.3284 17.7017H16.4121Z" fill="#212233"/>
<path d="M33.2643 11.5359V17.7017H29.0904V11.4862L22.1082 0.298342H26.5397L31.3577 8.03039L36.1757 0.298342H40.2723L33.2643 11.5359Z" fill="#212233"/>
<path d="M152.325 18C150.487 18 148.821 17.6188 147.327 16.8564C145.849 16.0773 144.681 15.0083 143.823 13.6492C142.981 12.2735 142.56 10.7238 142.56 9C142.56 7.27624 142.981 5.73481 143.823 4.37569C144.681 3 145.849 1.93094 147.327 1.16851C148.821 0.389503 150.496 0 152.351 0C153.914 0 155.322 0.265193 156.576 0.79558C157.847 1.32597 158.912 2.0884 159.771 3.08287L157.092 5.46961C155.872 4.1105 154.36 3.43094 152.557 3.43094C151.44 3.43094 150.444 3.67127 149.568 4.15193C148.692 4.61602 148.005 5.27072 147.507 6.11602C147.026 6.96133 146.786 7.92265 146.786 9C146.786 10.0773 147.026 11.0387 147.507 11.884C148.005 12.7293 148.692 13.3923 149.568 13.8729C150.444 14.337 151.44 14.5691 152.557 14.5691C154.36 14.5691 155.872 13.8812 157.092 12.5055L159.771 14.8923C158.912 15.9033 157.847 16.674 156.576 17.2044C155.305 17.7348 153.888 18 152.325 18Z" fill="#212233"/>
<path d="M174.115 13.9724H165.741L164.144 17.7017H159.867L167.906 0.298342H172.028L180.092 17.7017H175.712L174.115 13.9724ZM172.801 10.9144L169.941 4.25138L167.081 10.9144H172.801Z" fill="#212233"/>
<path d="M188.534 10.8646L186.112 13.3011V17.7017H181.964V0.298342H186.112V8.42818L194.099 0.298342H198.736L191.265 8.05525L199.174 17.7017H194.305L188.534 10.8646Z" fill="#212233"/>
<path d="M215 14.4696V17.7017H201.036V0.298342H214.665V3.53039H205.184V7.30939H213.557V10.442H205.184V14.4696H215Z" fill="#212233"/>
<path d="M41.8425 0.298828H50.0357C51.9938 0.298828 53.7201 0.663469 55.2144 1.39275C56.726 2.10546 57.894 3.11651 58.7184 4.4259C59.5601 5.73529 59.9809 7.26016 59.9809 9.00049C59.9809 10.7408 59.5601 12.2657 58.7184 13.5751C57.894 14.8845 56.726 15.9038 55.2144 16.6331C53.7201 17.3458 51.9938 17.7021 50.0357 17.7021H41.8425V0.298828ZM49.8296 14.3955C51.6331 14.3955 53.0674 13.9149 54.1323 12.9535C55.2144 11.9756 55.7555 10.6579 55.7555 9.00049C55.7555 7.34303 55.2144 6.03364 54.1323 5.07231C53.0674 4.09441 51.6331 3.60546 49.8296 3.60546H46.0164V14.3955H49.8296Z" fill="#FDAABD"/>
<path d="M74.6197 17.7021L71.1415 12.8541H67.3025V17.7021H63.1286V0.298828H70.9354C72.5328 0.298828 73.9155 0.555734 75.0835 1.06955C76.2687 1.58336 77.179 2.31264 77.8145 3.25739C78.4501 4.20214 78.7678 5.32093 78.7678 6.61375C78.7678 7.90656 78.4415 9.02535 77.7888 9.9701C77.1532 10.8983 76.2429 11.611 75.0577 12.1082L79.1028 17.7021H74.6197ZM74.5424 6.61375C74.5424 5.63585 74.2161 4.88999 73.5634 4.37618C72.9107 3.84579 71.9574 3.5806 70.7035 3.5806H67.3025V9.64689H70.7035C71.9574 9.64689 72.9107 9.3817 73.5634 8.85132C74.2161 8.32093 74.5424 7.57507 74.5424 6.61375Z" fill="#FDAABD"/>
<path d="M96.0393 14.4701V17.7021H82.0748V0.298828H95.7043V3.53087H86.2229V7.30988H94.5965V10.4425H86.2229V14.4701H96.0393Z" fill="#FDAABD"/>
<path d="M111.238 13.9729H102.864L101.267 17.7021H96.99L105.029 0.298828H109.151L117.215 17.7021H112.835L111.238 13.9729ZM109.924 10.9149L107.064 4.25187L104.204 10.9149H109.924Z" fill="#FDAABD"/>
<path d="M135.499 17.7021L135.473 7.26015L130.165 15.8624H128.284L123.003 7.48391V17.7021H119.086V0.298828H122.539L129.289 11.1137L135.937 0.298828H139.363L139.415 17.7021H135.499Z" fill="#FDAABD"/>
</svg>
