<svg width="64" height="20" viewBox="0 0 64 20" fill="none" xmlns="http://www.w3.org/2000/svg">
<path d="M5.53737 13.6136C5.21008 13.3997 4.85755 13.2294 4.48828 13.1068C4.11464 12.9845 3.72448 12.9235 3.33225 12.9261C3.09189 12.9238 2.85216 12.9516 2.6184 13.0091C2.42143 13.056 2.23376 13.1372 2.06351 13.2491C1.91807 13.3454 1.7956 13.474 1.70514 13.6254C1.61918 13.7753 1.57518 13.9465 1.57798 14.1203C1.57369 14.2718 1.61288 14.4212 1.69069 14.55C1.77281 14.6738 1.88286 14.7755 2.01149 14.8463C2.1724 14.9374 2.34443 15.0062 2.52303 15.0508C2.74689 15.1086 2.9736 15.1541 3.2022 15.1871L3.74264 15.2612C4.05589 15.3059 4.36515 15.3763 4.66746 15.4716C4.95532 15.56 5.22754 15.6951 5.47379 15.8716C5.71126 16.0398 5.9088 16.2606 6.05181 16.5177C6.20173 16.8074 6.27543 17.1322 6.26567 17.46C6.27409 17.8386 6.18751 18.2131 6.01423 18.5476C5.84826 18.8591 5.61616 19.1285 5.33507 19.3358C5.0342 19.5566 4.69762 19.7212 4.34088 19.8218C3.94969 19.9346 3.54498 19.9905 3.13861 19.9877C2.86274 19.9872 2.58734 19.9644 2.31495 19.9196C2.03008 19.8741 1.74895 19.8068 1.47394 19.7181C1.20028 19.6296 0.93441 19.5176 0.679167 19.3832C0.435255 19.2557 0.207221 19.0985 0 18.915L0.684947 17.8867C0.831829 18.0224 0.993833 18.1398 1.16759 18.2364C1.5663 18.4607 1.99762 18.6178 2.445 18.7016C2.67186 18.7448 2.9021 18.7666 3.13283 18.7668C3.37396 18.7687 3.61449 18.7419 3.84957 18.6868C4.05318 18.6409 4.24831 18.5618 4.42759 18.4527C4.58182 18.3589 4.71404 18.2314 4.81485 18.0793C4.90871 17.9324 4.95799 17.7601 4.95647 17.5845C4.9575 17.4337 4.91569 17.2858 4.83614 17.159C4.75659 17.0322 4.64275 16.9319 4.50851 16.8703C4.0954 16.6736 3.65269 16.5504 3.19931 16.5058L2.59239 16.4199C2.30363 16.3787 2.0192 16.3102 1.74271 16.2154C1.47448 16.1256 1.22326 15.9893 0.999965 15.8124C0.781126 15.637 0.602548 15.4144 0.476862 15.1604C0.336712 14.8644 0.268305 14.5381 0.277447 14.2092C0.270538 13.8384 0.353982 13.4718 0.520213 13.1424C0.680605 12.8339 0.906833 12.5665 1.18204 12.3601C1.47763 12.14 1.80952 11.9763 2.16177 11.8771C2.55097 11.7642 2.95379 11.7083 3.35826 11.7111C3.88042 11.7041 4.40037 11.7821 4.89867 11.9422C5.35102 12.0931 5.78162 12.3053 6.17897 12.5734L5.53737 13.6136ZM9.79155 14.224C10.1429 14.2196 10.4913 14.2903 10.8146 14.4315C11.1193 14.5673 11.3915 14.7696 11.6123 15.0241C11.8395 15.2887 12.0151 15.5955 12.1296 15.928C12.26 16.3086 12.3236 16.7099 12.3175 17.1133C12.3175 17.1903 12.3175 17.2644 12.3175 17.3415C12.3175 17.4185 12.3175 17.4896 12.3001 17.5578H8.34652C8.37522 17.7806 8.44485 17.9958 8.55171 18.192C8.64264 18.3535 8.76222 18.4962 8.9043 18.6127C9.04567 18.7255 9.20646 18.8099 9.37827 18.8617C9.55558 18.9155 9.73959 18.9424 9.9245 18.9417C10.1999 18.9406 10.4729 18.8894 10.7308 18.7906C10.9986 18.6908 11.2485 18.5467 11.4707 18.3638L12.0487 19.2173C11.7457 19.4867 11.3914 19.6885 11.0083 19.8099C10.6334 19.9257 10.2438 19.9836 9.85225 19.9818C9.47895 19.986 9.10826 19.9177 8.7598 19.7803C8.43348 19.6472 8.13809 19.4453 7.89278 19.1876C7.64914 18.9333 7.4584 18.6308 7.33211 18.2986C7.19351 17.9198 7.12491 17.5179 7.1298 17.1133C7.12392 16.7092 7.19054 16.3074 7.32633 15.928C7.44635 15.589 7.63217 15.2785 7.87255 15.0152C8.10804 14.7593 8.39366 14.5573 8.71067 14.4226C9.05451 14.2834 9.42197 14.2159 9.79155 14.224ZM9.77132 15.2879C9.58203 15.2847 9.39383 15.3179 9.21643 15.3857C9.05931 15.4475 8.91656 15.5424 8.79737 15.6642C8.67671 15.7885 8.57882 15.9341 8.50836 16.0939C8.43174 16.2673 8.3792 16.4508 8.3523 16.6392H11.1239C11.0885 16.262 10.9319 15.9076 10.6788 15.6316C10.5577 15.5149 10.415 15.4243 10.2591 15.3652C10.1032 15.3062 9.93733 15.2799 9.77132 15.2879ZM15.9676 14.224C16.3519 14.2199 16.7331 14.2945 17.089 14.4433C17.4253 14.5867 17.7228 14.8114 17.956 15.0982L17.2133 15.928C17.0436 15.7571 16.8485 15.6151 16.6352 15.5072C16.4181 15.4076 16.1823 15.358 15.9445 15.362C15.7301 15.3598 15.5175 15.4032 15.3203 15.4894C15.1299 15.5727 14.9587 15.6959 14.8174 15.8509C14.6721 16.0114 14.5591 16.1997 14.485 16.4051C14.3247 16.866 14.3247 17.3695 14.485 17.8304C14.5591 18.0358 14.6721 18.2241 14.8174 18.3846C14.9588 18.5395 15.13 18.6626 15.3203 18.7461C15.5175 18.8323 15.7301 18.8756 15.9445 18.8735C16.1933 18.8753 16.4392 18.8196 16.6641 18.7105C16.876 18.6052 17.0709 18.4673 17.2422 18.3016L17.9618 19.1254C17.7258 19.4093 17.4291 19.6334 17.0948 19.7803C16.741 19.9292 16.3616 20.0038 15.9792 19.9996C15.5835 20.0057 15.1905 19.9312 14.8232 19.7803C14.4933 19.6433 14.1946 19.4377 13.9459 19.1766C13.6973 18.9155 13.5039 18.6045 13.3781 18.2631C13.1101 17.5253 13.1101 16.7132 13.3781 15.9754C13.5039 15.634 13.6973 15.3229 13.9459 15.0618C14.1946 14.8007 14.4933 14.5952 14.8232 14.4581C15.185 14.3041 15.5729 14.2246 15.9647 14.224H15.9676ZM23.9327 17.5222C23.9426 17.9069 23.8706 18.2892 23.7217 18.6424C23.5936 18.9375 23.403 19.1996 23.1639 19.4099C22.9316 19.6096 22.6622 19.7588 22.372 19.8485C21.7759 20.0355 21.1388 20.0355 20.5426 19.8485C20.2517 19.7585 19.9814 19.6093 19.7478 19.4099C19.5075 19.2007 19.3168 18.9383 19.1901 18.6424C19.0427 18.2887 18.9718 17.9066 18.982 17.5222V14.3663H20.1524V17.4096C20.1472 17.6382 20.1814 17.866 20.2536 18.0823C20.3149 18.2532 20.4138 18.4074 20.5426 18.5327C20.6607 18.6476 20.8031 18.7328 20.9588 18.7817C21.2934 18.8845 21.6501 18.8845 21.9848 18.7817C22.1404 18.7328 22.2828 18.6476 22.4009 18.5327C22.5302 18.4078 22.6292 18.2535 22.6899 18.0823C22.7572 17.8651 22.7866 17.6373 22.7766 17.4096V14.3663H23.9327V17.5222ZM28.1868 14.224C28.3485 14.223 28.5099 14.2359 28.6695 14.2625C28.8117 14.2864 28.9511 14.3251 29.0857 14.3781L28.7966 15.5635C28.6604 15.4941 28.5155 15.4442 28.366 15.4153C28.2159 15.3828 28.0629 15.3659 27.9094 15.3649C27.7333 15.3629 27.5586 15.3962 27.395 15.4627C27.2406 15.5285 27.1031 15.6299 26.9932 15.759C26.8762 15.8935 26.7868 16.0507 26.7302 16.2213C26.6641 16.4217 26.6319 16.6321 26.6349 16.8436V19.8574H25.4788V14.3663H26.6349V14.9826C26.8003 14.7309 27.0303 14.5309 27.2996 14.4048C27.582 14.279 27.8877 14.2174 28.1955 14.224H28.1868ZM32.1029 14.224C32.4543 14.2196 32.8027 14.2903 33.126 14.4315C33.4307 14.5673 33.7028 14.7696 33.9236 15.0241C34.1539 15.288 34.3325 15.5949 34.4496 15.928C34.576 16.3093 34.6357 16.7106 34.6259 17.1133C34.6259 17.1903 34.6259 17.2644 34.6259 17.3415C34.6259 17.4185 34.6259 17.4896 34.6086 17.5578H30.6665C30.6957 17.7763 30.7643 17.9873 30.8688 18.1801C30.9611 18.3467 31.0838 18.4936 31.2301 18.6127C31.3715 18.7255 31.5322 18.8099 31.7041 18.8617C31.8814 18.9155 32.0654 18.9424 32.2503 18.9417C32.5257 18.9406 32.7987 18.8894 33.0566 18.7906C33.3244 18.6908 33.5743 18.5467 33.7965 18.3638L34.3745 19.2173C34.0715 19.4867 33.7172 19.6885 33.3341 19.8099C32.9592 19.9257 32.5695 19.9836 32.178 19.9818C31.8007 19.9866 31.4259 19.9172 31.074 19.7773C30.7477 19.6443 30.4523 19.4423 30.207 19.1847C29.9647 18.9309 29.7749 18.6295 29.6492 18.2986C29.5106 17.9198 29.442 17.5179 29.4469 17.1133C29.441 16.7092 29.5076 16.3074 29.6434 15.928C29.7635 15.589 29.9493 15.2785 30.1897 15.0152C30.4251 14.7593 30.7108 14.5573 31.0278 14.4226C31.3716 14.2834 31.7391 14.2159 32.1087 14.224H32.1029ZM32.0798 15.2879C31.8905 15.2847 31.7023 15.3179 31.5249 15.3857C31.3677 15.4475 31.225 15.5424 31.1058 15.6642C30.9852 15.7885 30.8873 15.9341 30.8168 16.0939C30.7402 16.2673 30.6877 16.4508 30.6607 16.6392H33.4323C33.3993 16.2631 33.2459 15.9089 32.9959 15.6316C32.8748 15.5149 32.7321 15.4243 32.5762 15.3652C32.4203 15.3062 32.2544 15.2799 32.0884 15.2879H32.0798ZM39.6662 11.6904C40.0037 11.6899 40.3401 11.7286 40.669 11.8059C40.9787 11.8791 41.2786 11.9906 41.5621 12.1378C41.8401 12.279 42.0986 12.4574 42.3308 12.6683C42.5569 12.8701 42.7518 13.1059 42.9089 13.3676L41.8511 14.0877C41.6168 13.7325 41.3013 13.4415 40.932 13.2402C40.5418 13.0349 40.1076 12.933 39.6691 12.9439C39.2912 12.9397 38.9162 13.0112 38.5651 13.1543C38.2398 13.2893 37.9448 13.491 37.6981 13.7469C37.4469 14.0112 37.2503 14.3246 37.12 14.6685C36.8402 15.4327 36.8402 16.275 37.12 17.0392C37.2503 17.3831 37.4469 17.6966 37.6981 17.9608C37.9447 18.2169 38.2397 18.4186 38.5651 18.5535C38.9162 18.6966 39.2912 18.768 39.6691 18.7639C40.0983 18.7736 40.5231 18.6725 40.9043 18.4701C41.2856 18.2676 41.6111 17.9702 41.8511 17.6052L42.8771 18.3786C42.7139 18.6287 42.5196 18.8558 42.299 19.0543C42.0708 19.255 41.8194 19.4262 41.5505 19.564C41.275 19.7064 40.9839 19.8148 40.6835 19.887C39.8047 20.0866 38.888 20.0166 38.0478 19.6855C37.5642 19.4928 37.1248 19.1996 36.7572 18.8242C36.3896 18.4488 36.1018 17.9995 35.912 17.5045C35.511 16.4374 35.511 15.2556 35.912 14.1885C36.1018 13.6934 36.3896 13.2441 36.7572 12.8687C37.1248 12.4933 37.5642 12.2001 38.0478 12.0074C38.5627 11.7974 39.112 11.6898 39.6662 11.6904ZM46.5532 14.224C46.9489 14.2184 47.3418 14.2929 47.7093 14.4433C48.0484 14.5781 48.3586 14.7794 48.6225 15.036C48.8802 15.2961 49.0846 15.6064 49.2237 15.9487C49.5135 16.6823 49.5135 17.5028 49.2237 18.2364C49.0846 18.5787 48.8803 18.889 48.6225 19.1491C48.3586 19.4057 48.0484 19.607 47.7093 19.7418C46.9721 20.0354 46.1545 20.0354 45.4174 19.7418C45.079 19.6075 44.7696 19.4061 44.5071 19.1491C44.2507 18.8885 44.0474 18.5782 43.9088 18.2364C43.619 17.5028 43.619 16.6823 43.9088 15.9487C44.0452 15.6087 44.2455 15.2996 44.4984 15.0389C44.7609 14.782 45.0703 14.5806 45.4088 14.4463C45.7725 14.2965 46.1613 14.221 46.5532 14.224ZM46.5532 15.3501C46.3256 15.3474 46.0998 15.3907 45.8885 15.4775C45.69 15.5597 45.51 15.6827 45.3596 15.8391C45.2075 15.998 45.0877 16.1864 45.007 16.3932C44.8358 16.8521 44.8358 17.3597 45.007 17.8186C45.0877 18.0254 45.2075 18.2137 45.3596 18.3727C45.5126 18.5299 45.6956 18.653 45.8972 18.7342C46.3236 18.9056 46.7973 18.9056 47.2237 18.7342C47.4247 18.6518 47.6071 18.528 47.7597 18.3705C47.9123 18.213 48.0318 18.0252 48.111 17.8186C48.2822 17.3597 48.2822 16.8521 48.111 16.3932C48.0301 16.1858 47.9091 15.9974 47.7555 15.8391C47.6037 15.6831 47.4229 15.5602 47.2237 15.4775C47.0107 15.39 46.7828 15.3467 46.5532 15.3501ZM52.9374 14.224C53.2609 14.212 53.5825 14.2797 53.8752 14.4215C54.1679 14.5633 54.4231 14.775 54.6194 15.0389V11.6104H55.7754V19.8455H54.6194V19.1876C54.4346 19.435 54.1987 19.6374 53.9287 19.7803C53.6208 19.9324 53.2819 20.0065 52.9403 19.9966C52.5871 20.0004 52.2368 19.9303 51.9108 19.7907C51.5849 19.6511 51.2901 19.4449 51.0444 19.1847C50.7945 18.9229 50.598 18.6126 50.4664 18.272C50.1909 17.5253 50.1909 16.7012 50.4664 15.9546C50.5981 15.6141 50.7946 15.3038 51.0444 15.0419C51.2901 14.7817 51.5849 14.5754 51.9108 14.4359C52.2368 14.2963 52.5871 14.2262 52.9403 14.23L52.9374 14.224ZM53.0761 15.3501C52.8435 15.346 52.6128 15.3935 52.3998 15.4894C52.2075 15.5773 52.0353 15.7055 51.8941 15.8657C51.7538 16.0285 51.6458 16.2177 51.5762 16.4228C51.4271 16.8633 51.4271 17.3425 51.5762 17.783C51.6458 17.9881 51.7538 18.1774 51.8941 18.3401C52.0353 18.5003 52.2075 18.6285 52.3998 18.7165C52.6114 18.8069 52.8383 18.8535 53.0674 18.8535C53.2966 18.8535 53.5235 18.8069 53.7351 18.7165C53.9275 18.6313 54.1007 18.5061 54.2437 18.349C54.3849 18.1904 54.4949 18.0052 54.5674 17.8038C54.7246 17.3525 54.7246 16.8593 54.5674 16.408C54.494 16.203 54.3821 16.0147 54.2379 15.8539C54.095 15.6959 53.9218 15.5698 53.7293 15.4835C53.5238 15.3934 53.3024 15.348 53.079 15.3501H53.0761ZM59.6626 14.224C60.014 14.2195 60.3624 14.2902 60.6857 14.4315C60.9904 14.5672 61.2626 14.7695 61.4833 15.0241C61.7116 15.2884 61.8883 15.5953 62.0035 15.928C62.1323 16.3039 62.1959 16.7 62.1914 17.0985C62.1914 17.1755 62.1914 17.2496 62.1914 17.3267C62.1914 17.4037 62.1914 17.4748 62.1741 17.543H58.2204C58.2491 17.7658 58.3188 17.9809 58.4256 18.1771C58.5176 18.3439 58.6403 18.4909 58.7869 18.6098C58.9282 18.7226 59.089 18.807 59.2609 18.8587C59.4382 18.9125 59.6222 18.9394 59.8071 18.9387C60.0825 18.9376 60.3555 18.8864 60.6134 18.7876C60.8812 18.6878 61.1311 18.5437 61.3533 18.3609L61.9313 19.2143C61.628 19.4833 61.2738 19.6851 60.8909 19.807C60.516 19.9228 60.1264 19.9807 59.7348 19.9789C59.3575 19.9836 58.9827 19.9142 58.6308 19.7744C58.3045 19.6413 58.0091 19.4394 57.7638 19.1817C57.5219 18.9288 57.3322 18.6284 57.206 18.2986C57.0684 17.9196 57.0008 17.5177 57.0066 17.1133C56.9998 16.7094 57.0654 16.3076 57.2002 15.928C57.3214 15.5913 57.5071 15.283 57.7465 15.0212C57.982 14.7652 58.2676 14.5633 58.5846 14.4285C58.928 14.2873 59.2955 14.2178 59.6655 14.224H59.6626ZM62.7463 19.8544V19.5788H62.8532V19.5225H62.5642V19.5788H62.674V19.8544H62.7463ZM63.2809 19.8544V19.5136H63.1971L63.0989 19.7418L63.0006 19.5136H62.9168V19.8455H62.9775V19.5936L63.07 19.8099H63.1307L63.2231 19.5936V19.8455L63.2809 19.8544ZM59.6395 15.2968C59.4502 15.2936 59.262 15.3267 59.0846 15.3945C58.9274 15.4564 58.7847 15.5513 58.6655 15.6731C58.5451 15.7977 58.4473 15.9432 58.3765 16.1028C58.3 16.2762 58.2475 16.4597 58.2204 16.648H60.992C60.9603 16.2685 60.8057 15.9107 60.5527 15.6316C60.4313 15.5145 60.2881 15.4237 60.1317 15.3647C59.9753 15.3056 59.8088 15.2795 59.6423 15.2879L59.6395 15.2968Z" fill="#F79E1B"/>
<path d="M9.37262 8.54927H8.06631V1.70393L5.69934 7.73731H4.32367L1.96826 1.78097V8.54927H0.650391V0.251884H2.65899L5.01439 6.17859L7.3698 0.251884H9.3784L9.37262 8.54927ZM16.2568 8.54927H15.0487V7.8677C14.8547 8.11634 14.6101 8.31859 14.332 8.46037C14.0134 8.61819 13.6626 8.69541 13.3089 8.68558C12.9423 8.6897 12.5787 8.6172 12.2403 8.47251C11.902 8.32781 11.5959 8.11396 11.3408 7.84399C11.0896 7.57071 10.8932 7.24954 10.7627 6.89868C10.4771 6.12437 10.4771 5.26972 10.7627 4.4954C10.8933 4.14458 11.0897 3.82342 11.3408 3.55009C11.5959 3.28012 11.902 3.06627 12.2403 2.92157C12.5787 2.77688 12.9423 2.70438 13.3089 2.7085C13.6629 2.69877 14.0139 2.77706 14.332 2.93668C14.6109 3.08362 14.8555 3.29089 15.0487 3.54417V2.86852H16.2568V8.54927ZM13.4505 3.88792C13.2089 3.88367 12.9693 3.93321 12.7482 4.03312C12.5492 4.12481 12.3711 4.25803 12.2251 4.42428C12.0781 4.59751 11.9661 4.79897 11.8956 5.01695C11.7417 5.47389 11.7417 5.97057 11.8956 6.42751C11.966 6.64552 12.078 6.84699 12.2251 7.02018C12.371 7.18656 12.5491 7.3198 12.7482 7.41134C12.9675 7.50515 13.2028 7.55346 13.4404 7.55346C13.678 7.55346 13.9133 7.50515 14.1326 7.41134C14.3316 7.32224 14.5106 7.19212 14.6586 7.02907C14.8098 6.85979 14.9267 6.66135 15.0025 6.44529C15.164 5.97748 15.164 5.46698 15.0025 4.99917C14.9265 4.78654 14.8106 4.59123 14.6614 4.42428C14.5134 4.26135 14.3344 4.13125 14.1355 4.04201C13.9204 3.94136 13.6869 3.88883 13.4505 3.88792ZM21.8086 4.29093C21.7074 4.23104 21.6032 4.17664 21.4965 4.12795C21.363 4.06692 21.2259 4.01447 21.0861 3.97089C20.9294 3.92218 20.7702 3.8826 20.6092 3.85236C20.4404 3.82071 20.2692 3.80484 20.0977 3.80494C19.8282 3.78905 19.5601 3.85392 19.326 3.99163C19.2398 4.03949 19.1677 4.11001 19.1169 4.19594C19.0661 4.28187 19.0385 4.38012 19.037 4.48059C19.0341 4.56941 19.0594 4.65679 19.1093 4.72951C19.1605 4.79934 19.2268 4.85612 19.3029 4.89545C19.3944 4.94273 19.4916 4.97759 19.5919 4.99917C19.7037 5.02485 19.8231 5.04757 19.9503 5.06733L20.5283 5.15623C21.0379 5.20943 21.5256 5.39618 21.9444 5.69852C22.1116 5.83211 22.2451 6.00493 22.3336 6.20244C22.4222 6.39995 22.4631 6.61637 22.4531 6.83349C22.4558 7.09381 22.3973 7.35097 22.2826 7.58321C22.1658 7.81715 21.9976 8.02005 21.7912 8.17588C21.5523 8.35197 21.2839 8.48154 20.9994 8.55816C20.6516 8.65337 20.2928 8.69924 19.9329 8.69447C19.7904 8.69447 19.6247 8.68558 19.4358 8.6678C19.2332 8.64743 19.0323 8.61177 18.8347 8.56112C18.6136 8.50443 18.3972 8.43011 18.1873 8.33887C17.9691 8.23901 17.7634 8.11266 17.5746 7.96252L18.1266 7.03796C18.2305 7.11953 18.3396 7.19379 18.4532 7.26021C18.5803 7.33395 18.7139 7.39546 18.852 7.44394C19.0121 7.5004 19.1764 7.54302 19.3434 7.57136C19.545 7.6047 19.749 7.62056 19.9532 7.61877C20.2775 7.63846 20.6015 7.57426 20.8953 7.43208C20.9895 7.38688 21.0693 7.31534 21.1255 7.2257C21.1817 7.13605 21.2122 7.03194 21.2132 6.92535C21.212 6.84379 21.19 6.76398 21.1495 6.69381C21.1089 6.62364 21.0512 6.56555 20.982 6.5253C20.7577 6.39745 20.5095 6.31969 20.2537 6.29712L19.6757 6.22007C19.1663 6.17719 18.6797 5.98481 18.274 5.66593C18.1184 5.5292 17.9947 5.35834 17.9122 5.16598C17.8296 4.97363 17.7903 4.7647 17.7972 4.55467C17.7906 4.28672 17.845 4.02089 17.9561 3.77827C18.0632 3.55651 18.2196 3.36364 18.4128 3.21523C18.6289 3.05038 18.8729 2.92782 19.1324 2.85371C19.4427 2.76477 19.7639 2.72186 20.0861 2.72628C20.5065 2.72428 20.9253 2.77908 21.3317 2.88927C21.6892 2.98159 22.0305 3.13056 22.3432 3.33081L21.8086 4.29093ZM27.5483 3.9946H25.4241V6.46899C25.4207 6.63382 25.4441 6.79807 25.4934 6.95498C25.5326 7.07704 25.5966 7.18916 25.6813 7.28392C25.7615 7.36921 25.8606 7.43327 25.9703 7.47061C26.0807 7.51081 26.1971 7.53086 26.3142 7.52987C26.512 7.52886 26.7079 7.4907 26.8922 7.41727C27.0808 7.34515 27.2619 7.25382 27.4327 7.14464L27.9124 8.1344C27.6721 8.29198 27.4152 8.42122 27.1465 8.51963C26.8443 8.63452 26.5238 8.69079 26.2015 8.68558C25.9346 8.7021 25.6672 8.66311 25.4154 8.57093C25.1636 8.47875 24.9326 8.33531 24.7362 8.14921C24.3933 7.80349 24.2218 7.25132 24.2218 6.4927V3.9946H23.1178V2.86852H24.2218V1.14682H25.4356V2.86852H27.5598L27.5483 3.9946ZM31.2678 2.72036C31.6322 2.71609 31.9934 2.78976 32.3284 2.93668C32.6439 3.07632 32.9259 3.28462 33.155 3.54713C33.3915 3.82298 33.574 4.14291 33.6925 4.48948C33.8252 4.87891 33.8907 5.28903 33.8862 5.70149C33.8862 5.7815 33.8862 5.85854 33.8862 5.93855C33.8862 6.01857 33.8862 6.09265 33.8688 6.16377H29.7707C29.8008 6.39496 29.8733 6.61819 29.9846 6.82163C30.0808 6.99405 30.2083 7.14595 30.3603 7.2691C30.5069 7.38575 30.6736 7.4732 30.8516 7.52691C31.0392 7.58391 31.234 7.61188 31.4296 7.60988C31.7149 7.60844 31.9977 7.55527 32.2649 7.45283C32.542 7.34962 32.8007 7.20046 33.0307 7.01129L33.6319 7.90029C33.3183 8.18184 32.9513 8.39373 32.5539 8.5226C32.1649 8.64248 31.7607 8.7024 31.3545 8.7004C30.9593 8.70655 30.5667 8.63409 30.1984 8.48704C29.8631 8.35503 29.5581 8.15324 29.3025 7.89437C29.0488 7.62425 28.8521 7.30348 28.7245 6.95202C28.5815 6.55985 28.511 6.14383 28.5164 5.72519C28.5118 5.311 28.5803 4.89937 28.7187 4.51022C28.8473 4.15837 29.0439 3.83682 29.2967 3.56491C29.5407 3.30117 29.8361 3.09316 30.1638 2.95446C30.5132 2.80287 30.8884 2.72332 31.2678 2.72036ZM31.2447 3.82272C31.0475 3.81892 30.8515 3.85309 30.6666 3.92348C30.5034 3.9899 30.3557 4.09087 30.2331 4.21981C30.112 4.34933 30.0141 4.49982 29.9441 4.66431C29.8647 4.84432 29.8102 5.03483 29.7823 5.23031H32.6579C32.6178 4.844 32.4554 4.48178 32.1955 4.19907C32.0704 4.07321 31.9215 3.97491 31.758 3.91019C31.5945 3.84547 31.4198 3.81571 31.2447 3.82272ZM38.0768 2.72036C38.2442 2.71898 38.4114 2.73186 38.5768 2.75888C38.7239 2.78435 38.8682 2.82506 39.0074 2.88038L38.7184 4.1072C38.5775 4.03538 38.4278 3.98354 38.2733 3.95311C38.1174 3.91921 37.9587 3.90134 37.7993 3.89977C37.6174 3.89779 37.4368 3.93201 37.2676 4.00052C37.1087 4.06554 36.9663 4.1669 36.8514 4.29686C36.7304 4.43662 36.638 4.59987 36.5797 4.77692C36.5114 4.98496 36.4781 5.20343 36.4815 5.42293V8.54927H35.2734V2.86852H36.4699V3.50861C36.6419 3.25014 36.8798 3.04512 37.1577 2.91594C37.4469 2.78414 37.7603 2.71744 38.0768 2.72036ZM42.2125 2.72036C42.6087 2.71761 43.0016 2.79516 43.3685 2.94853C43.7202 3.09587 44.0317 3.32878 44.276 3.62714L43.5014 4.47466C43.3215 4.29642 43.1146 4.14931 42.8887 4.03905C42.6635 3.93563 42.4188 3.88404 42.172 3.88792C41.9495 3.88602 41.7291 3.93143 41.5246 4.02127C41.3278 4.10725 41.1506 4.23443 41.0044 4.39465C40.8567 4.55992 40.7418 4.75319 40.6663 4.96361C40.4991 5.44263 40.4991 5.96627 40.6663 6.44529C40.743 6.65822 40.8598 6.85357 41.0102 7.02018C41.1565 7.18027 41.3336 7.30742 41.5304 7.39356C41.7349 7.4834 41.9553 7.52881 42.1778 7.52691C42.4355 7.52812 42.6902 7.47041 42.9234 7.358C43.1478 7.25009 43.3545 7.10714 43.5361 6.93424L44.2818 7.78768C44.0331 8.08385 43.7204 8.31625 43.3685 8.46629C43.0019 8.62073 42.6088 8.69832 42.2125 8.69447C41.8029 8.70019 41.3962 8.62264 41.016 8.46629C40.6719 8.3255 40.3601 8.11292 40.1004 7.84205C39.8407 7.57117 39.6388 7.2479 39.5074 6.89275C39.2299 6.12813 39.2299 5.28669 39.5074 4.52207C39.6389 4.16702 39.8409 3.84383 40.1006 3.57297C40.3603 3.30211 40.672 3.08948 41.016 2.94853C41.3962 2.79219 41.8029 2.71464 42.2125 2.72036ZM50.7266 8.54927H49.5186V7.8677C49.3244 8.11627 49.0799 8.31851 48.8018 8.46037C48.4832 8.61819 48.1324 8.69541 47.7787 8.68558C47.4126 8.68929 47.0496 8.6166 46.7117 8.47192C46.3739 8.32724 46.0683 8.1136 45.8135 7.84399C45.5623 7.57071 45.366 7.24954 45.2355 6.89868C44.9498 6.12437 44.9498 5.26972 45.2355 4.4954C45.3661 4.14461 45.5625 3.82346 45.8135 3.55009C46.0683 3.28049 46.3739 3.06684 46.7117 2.92216C47.0496 2.77748 47.4126 2.70479 47.7787 2.7085C48.1327 2.69877 48.4838 2.77706 48.8018 2.93668C49.0807 3.0837 49.3253 3.29096 49.5186 3.54417V2.86852H50.7266V8.54927ZM47.9204 3.88792C47.6788 3.88376 47.4392 3.9333 47.2181 4.03312C47.0191 4.12488 46.841 4.2581 46.695 4.42428C46.5481 4.59765 46.4362 4.79907 46.3655 5.01695C46.2113 5.47385 46.2113 5.9706 46.3655 6.42751C46.4361 6.64542 46.5481 6.84685 46.695 7.02018C46.8409 7.18649 47.019 7.31973 47.2181 7.41134C47.4374 7.50499 47.6726 7.55321 47.9102 7.55321C48.1478 7.55321 48.3831 7.50499 48.6024 7.41134C48.8014 7.32217 48.9804 7.19206 49.1284 7.02907C49.2797 6.85984 49.3966 6.66138 49.4723 6.44529C49.6343 5.97756 49.6343 5.4669 49.4723 4.99917C49.3965 4.78648 49.2806 4.59114 49.1313 4.42428C48.9832 4.26142 48.8042 4.13133 48.6053 4.04201C48.3902 3.94145 48.1567 3.88892 47.9204 3.88792ZM55.3131 2.72036C55.4806 2.71898 55.6478 2.73186 55.8131 2.75888C55.9603 2.78435 56.1046 2.82506 56.2438 2.88038L55.9547 4.1072C55.8139 4.03538 55.6642 3.98354 55.5097 3.95311C55.3538 3.91925 55.195 3.90138 55.0357 3.89977C54.8537 3.89772 54.6731 3.93194 54.5039 4.00052C54.345 4.06554 54.2027 4.1669 54.0878 4.29686C53.9667 4.43657 53.8743 4.59983 53.8161 4.77692C53.7477 4.98496 53.7145 5.20343 53.7178 5.42293V8.54927H52.5098V2.86852H53.7005V3.50861C53.8723 3.25004 54.1103 3.04499 54.3883 2.91594C54.6802 2.78289 54.9967 2.71616 55.316 2.72036H55.3131ZM59.2812 2.72036C59.6352 2.71063 59.9862 2.78891 60.3043 2.94853C60.5832 3.09556 60.8277 3.30281 61.021 3.55602V0H62.2291V8.54927H61.021V7.8677C60.8269 8.11627 60.5823 8.31851 60.3043 8.46037C59.9857 8.61819 59.6349 8.69541 59.2812 8.68558C58.9151 8.68929 58.5521 8.6166 58.2142 8.47192C57.8764 8.32724 57.5707 8.1136 57.316 7.84399C57.0649 7.57067 56.8685 7.2495 56.7379 6.89868C56.4523 6.12437 56.4523 5.26972 56.7379 4.4954C56.8686 4.14461 57.0649 3.82346 57.316 3.55009C57.5707 3.28049 57.8764 3.06684 58.2142 2.92216C58.5521 2.77748 58.9151 2.70479 59.2812 2.7085V2.72036ZM63.6423 8.02475C63.69 8.0249 63.7372 8.03498 63.781 8.05439C63.823 8.07261 63.8612 8.09875 63.8938 8.13143C63.9268 8.1644 63.9533 8.20366 63.9718 8.247C63.9905 8.29146 64.0001 8.33936 64.0001 8.38776C64.0001 8.43617 63.9905 8.48407 63.9718 8.52852C63.9533 8.57184 63.9268 8.61108 63.8938 8.64409C63.8611 8.67667 63.8229 8.70279 63.781 8.72114C63.7373 8.7407 63.6901 8.75079 63.6423 8.75077C63.5717 8.75141 63.5025 8.73066 63.4434 8.69112C63.3843 8.65158 63.3379 8.59501 63.31 8.52852C63.2913 8.48407 63.2816 8.43617 63.2816 8.38776C63.2816 8.33936 63.2913 8.29146 63.31 8.247C63.3464 8.15958 63.4149 8.09038 63.5007 8.05439C63.5464 8.03451 63.5956 8.02443 63.6452 8.02475H63.6423ZM63.6423 8.6678C63.679 8.66861 63.7154 8.66154 63.7493 8.64706C63.7814 8.63285 63.8108 8.61277 63.836 8.58779C63.8839 8.53334 63.9104 8.46259 63.9104 8.38924C63.9104 8.3159 63.8839 8.24515 63.836 8.1907C63.8108 8.16572 63.7814 8.14564 63.7493 8.13143C63.7154 8.11703 63.679 8.10997 63.6423 8.11069C63.6047 8.11022 63.5674 8.11726 63.5325 8.13143C63.4933 8.15186 63.4591 8.18122 63.4326 8.21725C63.4061 8.25328 63.388 8.29504 63.3796 8.33935C63.3712 8.38366 63.3729 8.42934 63.3843 8.47291C63.3958 8.51648 63.4168 8.55678 63.4458 8.59075C63.471 8.61573 63.5003 8.63581 63.5325 8.65002C63.5686 8.66356 63.6069 8.66961 63.6452 8.6678H63.6423ZM63.6626 8.21737C63.6977 8.21515 63.7325 8.22563 63.7608 8.247C63.772 8.2562 63.781 8.26796 63.787 8.28133C63.7931 8.2947 63.7959 8.30933 63.7955 8.32405C63.7959 8.33663 63.7939 8.34918 63.7894 8.3609C63.7849 8.37262 63.7781 8.38328 63.7695 8.39221C63.7477 8.41165 63.7203 8.42312 63.6915 8.42481L63.7984 8.55223H63.7146L63.6163 8.42777H63.5845V8.55223H63.5267V8.2233L63.6626 8.21737ZM63.5816 8.2796V8.3685H63.6626C63.6767 8.3727 63.6917 8.3727 63.7059 8.3685C63.7112 8.36501 63.7156 8.36018 63.7187 8.35449C63.7217 8.34879 63.7233 8.34239 63.7232 8.3359C63.7233 8.32941 63.7217 8.32302 63.7187 8.31732C63.7156 8.31162 63.7112 8.3068 63.7059 8.30331C63.6917 8.29911 63.6767 8.29911 63.6626 8.30331L63.5816 8.2796ZM59.4286 3.88792C59.187 3.88376 58.9474 3.9333 58.7263 4.03312C58.5273 4.12481 58.3492 4.25803 58.2032 4.42428C58.0564 4.59765 57.9444 4.79907 57.8737 5.01695C57.7196 5.47385 57.7196 5.9706 57.8737 6.42751C57.9443 6.64542 58.0563 6.84685 58.2032 7.02018C58.3491 7.18656 58.5272 7.3198 58.7263 7.41134C58.9457 7.50499 59.1809 7.55321 59.4185 7.55321C59.6561 7.55321 59.8913 7.50499 60.1107 7.41134C60.3115 7.31608 60.4906 7.1788 60.6367 7.00832C60.7847 6.84497 60.9005 6.65377 60.9777 6.44529C61.1397 5.97756 61.1397 5.4669 60.9777 4.99917C60.9036 4.78122 60.7876 4.5807 60.6367 4.40947C60.4886 4.2466 60.3096 4.11651 60.1107 4.02719C59.8954 3.93213 59.663 3.88468 59.4286 3.88792Z" fill="#EB001B"/>
</svg>
