<svg width="47" height="30" viewBox="0 0 47 30" fill="none" xmlns="http://www.w3.org/2000/svg">
<path d="M47 0H0V30H47V0Z" fill="black"/>
<path d="M13.1243 27.4944V25.8033C13.1361 25.6628 13.1179 25.5214 13.0708 25.3886C13.0238 25.2558 12.949 25.1348 12.8515 25.0338C12.7541 24.9327 12.6362 24.854 12.506 24.803C12.3758 24.752 12.2362 24.7298 12.0967 24.738C11.9122 24.726 11.7279 24.7642 11.5629 24.8484C11.3979 24.9327 11.2583 25.06 11.1585 25.2171C11.0675 25.0647 10.9376 24.9398 10.7824 24.8555C10.6271 24.7712 10.4523 24.7306 10.2761 24.738C10.1198 24.7286 9.96375 24.76 9.82292 24.8291C9.68209 24.8982 9.56123 25.0027 9.47196 25.1325V24.8028H8.92188V27.5001H9.46358V25.9499C9.4537 25.8563 9.46411 25.7617 9.4941 25.6727C9.52408 25.5836 9.57292 25.5021 9.63722 25.434C9.70151 25.3659 9.77973 25.3127 9.86644 25.2782C9.95314 25.2436 10.0463 25.2286 10.1393 25.234C10.5247 25.234 10.7425 25.4877 10.7425 25.9443V27.4973H11.2842V25.9499C11.2748 25.8564 11.2855 25.762 11.3157 25.6732C11.3458 25.5843 11.3947 25.5031 11.4589 25.4351C11.5231 25.3671 11.6011 25.3139 11.6876 25.2792C11.7741 25.2445 11.867 25.2291 11.9599 25.234C12.3564 25.234 12.5686 25.4877 12.5686 25.9443V27.4973L13.1243 27.4944ZM21.8251 24.8028H20.8534V23.9854H20.3089V24.8028H19.7504V25.2932H20.3089V26.57C20.3089 27.1957 20.5267 27.5677 21.2136 27.5677C21.4702 27.5684 21.7218 27.4962 21.9396 27.3592L21.772 26.88C21.6163 26.9738 21.4395 27.0261 21.2583 27.0322C20.979 27.0322 20.8506 26.8518 20.8506 26.5812V25.2876H21.8223L21.8251 24.8028ZM26.7842 24.7351C26.6398 24.7321 26.497 24.7669 26.3698 24.836C26.2426 24.9052 26.1352 25.0063 26.0582 25.1297V24.8028H25.5277V27.5001H26.0638V25.9781C26.0638 25.5328 26.276 25.2453 26.6558 25.2453C26.78 25.2436 26.9033 25.2666 27.0188 25.3129L27.1975 24.8028C27.0648 24.7549 26.9251 24.7301 26.7842 24.7295V24.7351ZM19.2869 25.017C18.9581 24.8198 18.5801 24.722 18.1979 24.7351C17.5222 24.7351 17.1089 25.0564 17.1089 25.5807C17.1089 26.0204 17.4105 26.2853 18.008 26.3699L18.2872 26.4093C18.6056 26.4544 18.7787 26.5672 18.7787 26.7194C18.7787 26.9279 18.5441 27.0632 18.1476 27.0632C17.8284 27.0745 17.515 26.9751 17.2597 26.7814L16.9805 27.2041C17.3208 27.4384 17.7246 27.5605 18.1365 27.5536C18.9071 27.5536 19.3344 27.1929 19.3344 26.6799C19.3344 26.1669 19.0077 25.9725 18.4297 25.8879L18.1504 25.8484C17.8991 25.8146 17.6757 25.7357 17.6757 25.5666C17.6757 25.3975 17.8879 25.234 18.2063 25.234C18.5005 25.2376 18.7889 25.3172 19.044 25.4651L19.2869 25.017ZM27.3846 26.1444C27.3754 26.3319 27.4052 26.5193 27.4721 26.6945C27.539 26.8696 27.6415 27.0287 27.773 27.1615C27.9046 27.2943 28.0622 27.3977 28.2357 27.4653C28.4093 27.5328 28.5949 27.5629 28.7807 27.5536C29.1294 27.5715 29.4722 27.4569 29.7413 27.2323L29.462 26.8095C29.2612 26.9639 29.0164 27.0489 28.764 27.0519C28.5387 27.03 28.3296 26.9242 28.1774 26.7551C28.0252 26.586 27.9409 26.3658 27.9409 26.1373C27.9409 25.9089 28.0252 25.6886 28.1774 25.5195C28.3296 25.3504 28.5387 25.2446 28.764 25.2227C29.0164 25.2258 29.2612 25.3108 29.462 25.4651L29.7413 25.0424C29.4722 24.8178 29.1294 24.7031 28.7807 24.721C28.5949 24.7118 28.4093 24.7419 28.2357 24.8094C28.0622 24.8769 27.9046 24.9804 27.773 25.1132C27.6415 25.2459 27.539 25.405 27.4721 25.5802C27.4052 25.7554 27.3754 25.9428 27.3846 26.1303V26.1444ZM23.6261 24.7351C22.8443 24.7351 22.3054 25.2988 22.3054 26.1444C22.2939 26.3293 22.321 26.5146 22.3848 26.6884C22.4486 26.8621 22.5478 27.0205 22.6759 27.1532C22.804 27.286 22.9582 27.3902 23.1286 27.4591C23.2989 27.5281 23.4818 27.5603 23.6652 27.5536C24.0636 27.5675 24.4532 27.4331 24.7598 27.1759L24.4806 26.7757C24.26 26.954 23.9869 27.0532 23.7043 27.0576C23.5087 27.0648 23.3175 26.998 23.1682 26.8702C23.0189 26.7425 22.9223 26.563 22.8973 26.367H24.8938C24.8938 26.2938 24.8938 26.2205 24.8938 26.1416C24.8938 25.296 24.3856 24.7323 23.6345 24.7323L23.6261 24.7351ZM23.6261 25.2368C23.717 25.2338 23.8075 25.2492 23.8924 25.282C23.9773 25.3149 24.0548 25.3646 24.1204 25.4281C24.186 25.4917 24.2383 25.5679 24.2742 25.6522C24.3102 25.7364 24.3291 25.8271 24.3298 25.9189H22.8973C22.9075 25.7305 22.9903 25.5536 23.1281 25.4261C23.2659 25.2986 23.4477 25.2307 23.6345 25.2368H23.6261ZM16.3913 26.1472V24.8028H15.8552V25.1297C15.7513 25.0004 15.619 24.8974 15.4687 24.8289C15.3184 24.7604 15.1543 24.7283 14.9895 24.7351C14.6174 24.7351 14.2605 24.8844 13.9974 25.15C13.7342 25.4156 13.5864 25.7758 13.5864 26.1514C13.5864 26.5271 13.7342 26.8873 13.9974 27.1529C14.2605 27.4185 14.6174 27.5677 14.9895 27.5677C15.1543 27.5746 15.3184 27.5425 15.4687 27.4739C15.619 27.4054 15.7513 27.3024 15.8552 27.1731V27.5001H16.3913V26.1472ZM14.2272 26.1472C14.218 26.0306 14.2328 25.9133 14.2707 25.8028C14.3086 25.6923 14.3689 25.5909 14.4476 25.5051C14.5263 25.4193 14.6218 25.3508 14.7281 25.3042C14.8344 25.2575 14.9491 25.2336 15.0649 25.234C15.2902 25.2559 15.4993 25.3617 15.6515 25.5308C15.8037 25.6999 15.888 25.9202 15.888 26.1486C15.888 26.3771 15.8037 26.5973 15.6515 26.7664C15.4993 26.9355 15.2902 27.0413 15.0649 27.0632C14.9491 27.0636 14.8344 27.0397 14.7281 26.993C14.6218 26.9464 14.5263 26.878 14.4476 26.7921C14.3689 26.7063 14.3086 26.6049 14.2707 26.4944C14.2328 26.3839 14.218 26.2666 14.2272 26.15V26.1472ZM34.8596 24.738C34.7151 24.7349 34.5723 24.7697 34.4451 24.8388C34.3179 24.908 34.2106 25.0092 34.1336 25.1325V24.8028H33.603V27.5001H34.1391V25.9781C34.1391 25.5328 34.3514 25.2453 34.7311 25.2453C34.8553 25.2436 34.9787 25.2666 35.0941 25.3129L35.2728 24.8056C35.1402 24.7577 35.0004 24.7329 34.8596 24.7323V24.738ZM39.1653 27.1111C39.2016 27.1107 39.2376 27.1174 39.2714 27.1309C39.3035 27.1441 39.3328 27.1632 39.3579 27.1872C39.3825 27.2115 39.4024 27.2402 39.4166 27.2718C39.4307 27.3047 39.438 27.3402 39.438 27.3761C39.438 27.4119 39.4307 27.4474 39.4166 27.4803C39.4024 27.5119 39.3825 27.5406 39.3579 27.5649C39.3328 27.5889 39.3035 27.6081 39.2714 27.6213C39.238 27.6362 39.2018 27.6438 39.1653 27.6438C39.1123 27.6434 39.0606 27.6278 39.0161 27.5989C38.9716 27.5699 38.9362 27.5288 38.914 27.4803C38.9 27.4474 38.8928 27.4119 38.8928 27.3761C38.8928 27.3402 38.9 27.3047 38.914 27.2718C38.9282 27.2402 38.9481 27.2115 38.9726 27.1872C38.9978 27.1632 39.0271 27.1441 39.0592 27.1309C39.0923 27.1145 39.1284 27.1049 39.1653 27.1027V27.1111ZM39.1653 27.5874C39.1931 27.5876 39.2207 27.5819 39.2463 27.5705C39.2702 27.5597 39.292 27.5444 39.3105 27.5254C39.3454 27.487 39.3648 27.4367 39.3648 27.3845C39.3648 27.3323 39.3454 27.2821 39.3105 27.2436C39.2921 27.2246 39.2703 27.2093 39.2463 27.1985C39.2207 27.1872 39.1931 27.1814 39.1653 27.1816C39.1374 27.1817 39.1099 27.1874 39.0843 27.1985C39.0592 27.2089 39.0364 27.2242 39.0173 27.2436C38.9824 27.2821 38.963 27.3323 38.963 27.3845C38.963 27.4367 38.9824 27.487 39.0173 27.5254C39.0365 27.5447 39.0593 27.56 39.0843 27.5705C39.1103 27.5797 39.1378 27.5835 39.1653 27.5818V27.5874ZM39.182 27.252C39.2081 27.2508 39.2338 27.2587 39.2546 27.2746C39.2632 27.2817 39.2699 27.2908 39.2743 27.3011C39.2787 27.3114 39.2805 27.3226 39.2798 27.3338C39.2802 27.3431 39.2786 27.3525 39.2753 27.3612C39.2719 27.37 39.2668 27.3779 39.2602 27.3845C39.244 27.3994 39.2234 27.4083 39.2016 27.4099L39.2826 27.5029H39.2183L39.1429 27.4099H39.1178V27.5029H39.0648V27.2549L39.182 27.252ZM39.1206 27.3V27.3676H39.182C39.193 27.3709 39.2046 27.3709 39.2155 27.3676C39.2175 27.3637 39.2185 27.3593 39.2185 27.3549C39.2185 27.3505 39.2175 27.3462 39.2155 27.3422C39.2175 27.3383 39.2185 27.334 39.2185 27.3296C39.2185 27.3251 39.2175 27.3208 39.2155 27.3169C39.2046 27.3137 39.193 27.3137 39.182 27.3169L39.1206 27.3ZM32.8016 26.1528V24.8028H32.2655V25.1297C32.1617 25.0004 32.0293 24.8974 31.879 24.8289C31.7287 24.7604 31.5647 24.7283 31.3999 24.7351C31.0278 24.7351 30.6709 24.8844 30.4077 25.15C30.1446 25.4156 29.9968 25.7758 29.9968 26.1514C29.9968 26.5271 30.1446 26.8873 30.4077 27.1529C30.6709 27.4185 31.0278 27.5677 31.3999 27.5677C31.5647 27.5746 31.7287 27.5425 31.879 27.4739C32.0293 27.4054 32.1617 27.3024 32.2655 27.1731V27.5001H32.8016V26.1528ZM30.6376 26.1528C30.6283 26.0362 30.6431 25.919 30.681 25.8085C30.719 25.6979 30.7792 25.5965 30.8579 25.5107C30.9367 25.4249 31.0322 25.3565 31.1384 25.3098C31.2447 25.2632 31.3594 25.2393 31.4753 25.2396C31.7006 25.2615 31.9097 25.3673 32.0619 25.5364C32.214 25.7055 32.2984 25.9258 32.2984 26.1542C32.2984 26.3827 32.214 26.6029 32.0619 26.772C31.9097 26.9411 31.7006 27.047 31.4753 27.0688C31.3594 27.0692 31.2447 27.0453 31.1384 26.9987C31.0322 26.952 30.9367 26.8836 30.8579 26.7978C30.7792 26.7119 30.719 26.6106 30.681 26.5C30.6431 26.3895 30.6283 26.2722 30.6376 26.1557V26.1528ZM38.1964 26.1528V23.7148H37.6602V25.1241C37.5564 24.9948 37.424 24.8918 37.2737 24.8233C37.1235 24.7548 36.9594 24.7226 36.7946 24.7295C36.4225 24.7295 36.0656 24.8787 35.8025 25.1443C35.5393 25.4099 35.3915 25.7702 35.3915 26.1458C35.3915 26.5214 35.5393 26.8817 35.8025 27.1473C36.0656 27.4129 36.4225 27.5621 36.7946 27.5621C36.9594 27.5689 37.1235 27.5368 37.2737 27.4683C37.424 27.3998 37.5564 27.2968 37.6602 27.1675V27.4944H38.1964V26.1528ZM36.0323 26.1528C36.023 26.0362 36.0378 25.919 36.0758 25.8085C36.1137 25.6979 36.1739 25.5965 36.2527 25.5107C36.3314 25.4249 36.4269 25.3565 36.5332 25.3098C36.6394 25.2632 36.7541 25.2393 36.87 25.2396C37.0859 25.2732 37.2826 25.3839 37.4243 25.5517C37.5659 25.7195 37.6431 25.933 37.6418 26.1535C37.6404 26.3739 37.5606 26.5865 37.4169 26.7525C37.2731 26.9185 37.0751 27.0267 36.8588 27.0576C36.7432 27.0579 36.6288 27.0341 36.5227 26.9876C36.4167 26.9411 36.3213 26.873 36.2426 26.7875C36.1639 26.7019 36.1036 26.6009 36.0655 26.4907C36.0274 26.3805 36.0123 26.2636 36.0212 26.1472L36.0323 26.1528Z" fill="white"/>
<path d="M27.8993 4.26758H19.1035V20.223H27.8993V4.26758Z" fill="#FF5F00"/>
<path d="M19.6606 12.2467C19.6594 10.7104 20.0044 9.19383 20.6696 7.81194C21.3348 6.43004 22.3027 5.21898 23.5 4.2704C22.017 3.09402 20.2361 2.3625 18.3608 2.15945C16.4854 1.95639 14.5913 2.28999 12.8949 3.12212C11.1985 3.95425 9.76822 5.25133 8.7676 6.86513C7.76697 8.47893 7.23633 10.3443 7.23633 12.2481C7.23633 14.1519 7.76697 16.0173 8.7676 17.6311C9.76822 19.2449 11.1985 20.542 12.8949 21.3741C14.5913 22.2063 16.4854 22.5399 18.3608 22.3368C20.2361 22.1338 22.017 21.4022 23.5 20.2259C22.3023 19.277 21.3342 18.0655 20.669 16.6831C20.0038 15.3006 19.659 13.7836 19.6606 12.2467Z" fill="#EB001B"/>
<path d="M38.8143 18.5352V18.2083H38.9456V18.1406H38.6133V18.2083H38.7445V18.5352H38.8143ZM39.4593 18.5352V18.1406H39.3588L39.2415 18.4225L39.1243 18.1406H39.0237V18.5352H39.0936V18.2365L39.2025 18.4929H39.2779L39.3867 18.2365V18.5352H39.4593Z" fill="#F79E1B"/>
<path d="M39.7651 12.2468C39.7651 14.1507 39.2343 16.0163 38.2335 17.6301C37.2327 19.244 35.8023 20.541 34.1056 21.373C32.409 22.2051 30.5147 22.5384 28.6393 22.3351C26.7638 22.1317 24.9828 21.3999 23.5 20.2231C24.6969 19.2737 25.6645 18.0623 26.3298 16.6803C26.9952 15.2984 27.3409 13.7819 27.3409 12.2454C27.3409 10.7089 26.9952 9.19243 26.3298 7.81046C25.6645 6.42849 24.6969 5.21709 23.5 4.26766C24.9828 3.09092 26.7638 2.35904 28.6393 2.1557C30.5147 1.95235 32.409 2.28574 34.1056 3.11775C35.8023 3.94976 37.2327 5.24682 38.2335 6.86067C39.2343 8.47452 39.7651 10.34 39.7651 12.244V12.2468Z" fill="#F79E1B"/>
</svg>
