<svg width="50" height="25" viewBox="0 0 50 25" fill="none" xmlns="http://www.w3.org/2000/svg">
<path d="M2.67162 8.75869L0 0.571075H1.14319L2.42106 4.6056C2.76558 5.71017 3.07878 6.70866 3.29176 7.66659H3.31681C3.54858 6.73051 3.88684 5.68521 4.25642 4.61496L5.64078 0.558594H6.77144L3.83986 8.75869H2.67162Z" fill="#1C2F76"/>
<path d="M7.323 6.01555C7.34806 7.46024 8.26261 8.05621 9.34002 8.05621C9.89921 8.07124 10.455 7.96476 10.9687 7.74418L11.1503 8.50865C10.5309 8.7662 9.86384 8.8906 9.19282 8.87372C7.38251 8.87372 6.29883 7.6849 6.29883 5.90946C6.29883 4.13402 7.34492 2.73926 9.05814 2.73926C10.9781 2.73926 11.4886 4.42733 11.4886 5.51007C11.4865 5.67699 11.475 5.84367 11.4541 6.00931L7.323 6.01555ZM10.455 5.25108C10.455 4.57086 10.1763 3.51309 8.97358 3.51309C7.8899 3.51309 7.40756 4.50846 7.3324 5.25108H10.455Z" fill="#1C2F76"/>
<path d="M12.3302 4.70246C12.3302 4.00975 12.3302 3.41378 12.2832 2.86773H13.2228L13.2573 4.02224H13.3042C13.404 3.66342 13.6154 3.34535 13.908 3.11379C14.2007 2.88223 14.5595 2.7491 14.9329 2.73356C15.0385 2.7318 15.1439 2.7444 15.2461 2.771V3.77885C15.1218 3.75933 14.9956 3.75514 14.8703 3.76637C14.1186 3.76637 13.583 4.33738 13.4389 5.1393C13.4078 5.30396 13.391 5.471 13.3888 5.63854V8.75882H12.3302V4.70246Z" fill="#1C2F76"/>
<path d="M17.0595 1.22622C17.0595 1.40125 16.9897 1.5691 16.8655 1.69287C16.7412 1.81663 16.5728 1.88616 16.3971 1.88616C16.2214 1.88616 16.0529 1.81663 15.9287 1.69287C15.8044 1.5691 15.7347 1.40125 15.7347 1.22622C15.7321 1.1381 15.7475 1.05038 15.7801 0.968407C15.8127 0.886438 15.8617 0.811938 15.9241 0.749454C15.9865 0.68697 16.0611 0.637812 16.1432 0.604978C16.2253 0.572144 16.3133 0.556323 16.4018 0.55848C16.4905 0.55383 16.5791 0.568019 16.6619 0.600104C16.7446 0.632189 16.8196 0.681436 16.8818 0.744581C16.944 0.807726 16.992 0.883324 17.0226 0.966361C17.0533 1.0494 17.0658 1.13798 17.0595 1.22622ZM15.8693 2.87997H16.9405V8.75857H15.8662L15.8693 2.87997Z" fill="#1C2F76"/>
<path d="M18.3347 8.75907V3.69486H17.5078V2.88047H18.3347V2.59964C18.3347 1.77277 18.5163 1.02078 19.0143 0.546502C19.4028 0.185202 19.9175 -0.0107245 20.4488 0.00045329C20.7608 -0.000393502 21.0701 0.0578449 21.3602 0.172068L21.213 0.998942C20.9992 0.904825 20.7671 0.859006 20.5333 0.86477C19.6219 0.86477 19.3902 1.66668 19.3902 2.56532V2.87735H20.809V3.69174H19.3902V8.75907H18.3347Z" fill="#1C2F76"/>
<path d="M23.0594 1.22622C23.0594 1.40125 22.9896 1.5691 22.8654 1.69287C22.7412 1.81663 22.5727 1.88616 22.397 1.88616C22.2213 1.88616 22.0528 1.81663 21.9286 1.69287C21.8044 1.5691 21.7346 1.40125 21.7346 1.22622C21.7324 1.13822 21.7482 1.05069 21.7809 0.968924C21.8137 0.887156 21.8627 0.812837 21.925 0.750444C21.9874 0.688052 22.0617 0.638879 22.1436 0.605887C22.2256 0.572896 22.3133 0.556769 22.4017 0.55848C22.4904 0.55383 22.579 0.568019 22.6618 0.600104C22.7445 0.632189 22.8195 0.681436 22.8817 0.744581C22.9439 0.807726 22.9919 0.883324 23.0225 0.966361C23.0532 1.0494 23.0658 1.13798 23.0594 1.22622ZM21.8692 2.87997H22.9373V8.75857H21.8724L21.8692 2.87997Z" fill="#1C2F76"/>
<path d="M24.823 6.01555C24.8481 7.46024 25.7626 8.05621 26.84 8.05621C27.3992 8.07124 27.955 7.96476 28.4687 7.74418L28.6503 8.50865C28.0308 8.76602 27.3638 8.89041 26.6928 8.87372C24.8825 8.87372 23.7988 7.6849 23.7988 5.90946C23.7988 4.13402 24.8449 2.73926 26.5581 2.73926C28.4781 2.73926 28.9886 4.42733 28.9886 5.51007C28.9873 5.67702 28.9758 5.84375 28.9541 6.00931L24.823 6.01555ZM27.955 5.25108C27.955 4.57086 27.6763 3.51309 26.4736 3.51309C25.3899 3.51309 24.9076 4.50846 24.8324 5.25108H27.955Z" fill="#1C2F76"/>
<path d="M34.9061 0.134766V7.24276C34.9061 7.76697 34.9061 8.35982 34.9531 8.76233H33.9915L33.9414 7.742H33.9164C33.725 8.10249 33.4353 8.4018 33.0807 8.60549C32.7261 8.80918 32.3209 8.90898 31.9119 8.89339C30.4931 8.89339 29.4062 7.69208 29.4062 5.90416C29.4062 3.94774 30.6089 2.74332 32.0434 2.74332C32.3924 2.72231 32.7408 2.79453 33.0524 2.95251C33.3641 3.11049 33.6277 3.3485 33.8161 3.64196H33.8412V0.134766H34.9123H34.9061ZM33.8349 5.27386C33.8369 5.12278 33.8212 4.97197 33.788 4.82454C33.7154 4.47057 33.5219 4.15264 33.2403 3.92502C32.9587 3.6974 32.6065 3.57419 32.2439 3.57643C31.1383 3.57643 30.4837 4.54684 30.4837 5.84799C30.4837 7.03682 31.0662 8.03219 32.2219 8.03219C32.5901 8.02993 32.9464 7.90203 33.2313 7.6698C33.5163 7.43757 33.7128 7.11505 33.788 6.756C33.8226 6.60457 33.8384 6.44947 33.8349 6.29419V5.27386Z" fill="#1C2F76"/>
<path d="M38.8652 8.75922C38.8903 8.3567 38.9122 7.76073 38.9122 7.23964V0.134766H39.9677V3.82918H39.9928C40.1955 3.48348 40.4897 3.19995 40.8432 3.00955C41.1967 2.81915 41.5959 2.72921 41.9973 2.74956C43.4568 2.74956 44.5029 3.96647 44.4747 5.75127C44.4747 7.85433 43.1498 8.89651 41.8375 8.89651C41.4379 8.91947 41.0401 8.82758 40.6914 8.63175C40.3427 8.43593 40.0578 8.14443 39.8706 7.79193H39.8362L39.7892 8.75922H38.8652ZM39.9708 6.40028C39.9749 6.5316 39.9917 6.66222 40.021 6.79032C40.1098 7.14695 40.3161 7.46364 40.6067 7.68986C40.8974 7.91608 41.2557 8.0388 41.6246 8.03843C42.7427 8.03843 43.4098 7.12731 43.4098 5.77935C43.4098 4.59988 42.8022 3.59515 41.6621 3.59515C41.2827 3.6026 40.9166 3.73579 40.6217 3.97369C40.3267 4.21159 40.1198 4.54062 40.0335 4.90879C39.9968 5.05172 39.9758 5.19819 39.9708 5.34563V6.40341V6.40028Z" fill="#1C2F76"/>
<path d="M45.6424 2.88086L46.9266 6.35685C47.0613 6.74688 47.2085 7.20868 47.3024 7.56128H47.3275C47.4371 7.20868 47.5592 6.75937 47.7033 6.33501L48.8684 2.88398H49.9991L48.4018 7.07451C47.6376 9.09021 47.1145 10.1261 46.3847 10.7564C46.0155 11.0975 45.563 11.3363 45.0724 11.4491L44.8062 10.5505C45.1501 10.4372 45.4691 10.2592 45.7458 10.0263C46.1333 9.7042 46.4409 9.29737 46.6447 8.83747C46.687 8.75858 46.7156 8.67313 46.7293 8.58473C46.7197 8.48801 46.6954 8.39331 46.6572 8.3039L44.4805 2.88398H45.6456L45.6424 2.88086Z" fill="#1C2F76"/>
<path d="M17.7329 12.7744L14.4913 20.9714L13.1789 14.0038C13.1265 13.6623 12.953 13.3508 12.6898 13.1258C12.4266 12.9009 12.0912 12.7773 11.7445 12.7775H6.44508L6.37305 13.127C7.43572 13.3404 8.46775 13.6842 9.44556 14.1505C9.90284 14.4032 10.0344 14.6185 10.1816 15.2114L12.6653 24.8218H15.9602L21.0059 12.7775H17.7329V12.7744Z" fill="#1C2F76"/>
<path d="M22.3441 12.7744L19.7695 24.8187H22.8828L25.4542 12.7744H22.3441Z" fill="#1C2F76"/>
<path d="M29.541 16.1131C29.541 15.6825 29.9638 15.2207 30.8627 15.1022C31.9163 14.9977 32.9787 15.1777 33.9384 15.6233L34.4833 13.0709C33.5525 12.7196 32.5659 12.5378 31.5705 12.5342C28.4886 12.5342 26.3275 14.1723 26.3056 16.5188C26.29 18.2505 27.856 19.2209 29.0336 19.7982C30.2112 20.3754 30.6403 20.778 30.6403 21.3084C30.6403 22.1166 29.6725 22.4691 28.7799 22.4847C27.6655 22.5083 26.5635 22.2473 25.579 21.7265L25.0215 24.36C26.1255 24.7884 27.3007 25.0054 28.4855 24.9997C31.7522 24.9997 33.8945 23.3803 33.9039 20.8778C33.9039 17.6982 29.5191 17.5235 29.541 16.1038" fill="#1C2F76"/>
<path d="M38.5612 20.5532L40.2149 16.0319L41.1545 20.5532H38.5612ZM39.7451 12.7774C39.4603 12.7744 39.1812 12.8571 38.9442 13.0146C38.7073 13.1722 38.5236 13.3973 38.4171 13.6605L33.7441 24.8186H37.0171L37.6686 23.0213H41.6556L42.0283 24.8186H44.9161L42.4105 12.7774H39.7451Z" fill="#1C2F76"/>
</svg>
