<svg width="61" height="18" viewBox="0 0 61 18" fill="none" xmlns="http://www.w3.org/2000/svg">
<path d="M33.3952 1.90612L29.604 10.6405H29.2181V0H23.8379V17.9754H28.4236C29.6267 17.9754 30.7164 17.2274 31.2158 16.0693L35.007 7.33494H35.3929V17.9754H40.7731V0H36.2101C35.007 0.0241281 33.9173 0.747976 33.3952 1.90612Z" fill="#319B42"/>
<path d="M13.2122 2.38897L10.9648 10.6649H10.5788L8.3314 2.38897C7.94547 0.989541 6.7423 0.0244141 5.38022 0.0244141H0V17.9998H5.38022V7.35935H5.76615L8.85352 17.9998H12.6901L15.7774 7.35935H16.1634V17.9998H21.5436V0.0244141H16.1634C14.7786 0.0244141 13.5754 0.989541 13.2122 2.38897Z" fill="#319B42"/>
<path d="M43.0645 8.18066V18.0008H48.4447V12.2824H54.2335C56.7534 12.2824 58.8646 10.5693 59.6591 8.20479H43.0645V8.18066Z" fill="#319B42"/>
<path d="M54.2346 0.0244141H42.3164C43.0428 4.19857 46.4934 7.38348 50.6251 7.38348H59.8872C59.9553 6.99743 60.0007 6.58725 60.0007 6.15294C60.0007 2.75089 57.4128 0.0244141 54.2346 0.0244141Z" fill="url(#paint0_linear)"/>
<defs>
<linearGradient id="paint0_linear" x1="42.3075" y1="3.69492" x2="59.9999" y2="3.69492" gradientUnits="userSpaceOnUse">
<stop stop-color="#00A3E1"/>
<stop offset="0.3042" stop-color="#009ADD"/>
<stop offset="0.7987" stop-color="#0082D4"/>
<stop offset="1" stop-color="#0076CF"/>
</linearGradient>
</defs>
</svg>
