<svg width="39" height="20" viewBox="0 0 39 20" fill="none" xmlns="http://www.w3.org/2000/svg">
<path d="M2.08386 7.00728L0 0.457251H0.891686L1.88842 3.68484C2.15715 4.56849 2.40145 5.36728 2.56757 6.13361H2.58711C2.76789 5.38475 3.03173 4.54852 3.32001 3.69233L4.3998 0.447266H5.28172L2.99509 7.00728H2.08386Z" fill="#1C2F76"/>
<path d="M5.71292 4.81242C5.73246 5.96816 6.44581 6.44493 7.28619 6.44493C7.72236 6.45695 8.15585 6.37177 8.55654 6.19531L8.69823 6.80688C8.21506 7.01292 7.69477 7.11244 7.17137 7.09893C5.75933 7.09893 4.91406 6.14788 4.91406 4.72755C4.91406 3.30721 5.73002 2.19141 7.06632 2.19141C8.56387 2.19141 8.96207 3.54185 8.96207 4.40803C8.96047 4.54157 8.9515 4.67491 8.9352 4.80742L5.71292 4.81242ZM8.15589 4.20085C8.15589 3.65668 7.93847 2.81046 7.00036 2.81046C6.15509 2.81046 5.77888 3.60675 5.72024 4.20085H8.15589Z" fill="#1C2F76"/>
<path d="M9.61868 3.76273C9.61868 3.20858 9.61868 2.7318 9.58203 2.29497H10.3149L10.3418 3.21856H10.3784C10.4562 2.93151 10.6211 2.67706 10.8494 2.49181C11.0777 2.30657 11.3575 2.20006 11.6488 2.18763C11.7312 2.18622 11.8134 2.1963 11.8931 2.21758V3.02386C11.7961 3.00824 11.6977 3.00488 11.5999 3.01387C11.0136 3.01387 10.5959 3.47068 10.4835 4.1122C10.4592 4.24393 10.4461 4.37756 10.4444 4.51159V7.00779H9.61868V3.76273Z" fill="#1C2F76"/>
<path d="M13.3051 0.981166C13.3051 1.12119 13.2506 1.25547 13.1537 1.35448C13.0568 1.45349 12.9254 1.50911 12.7884 1.50911C12.6514 1.50911 12.5199 1.45349 12.423 1.35448C12.3261 1.25547 12.2717 1.12119 12.2717 0.981166C12.2697 0.910669 12.2818 0.840493 12.3072 0.774918C12.3326 0.709343 12.3708 0.649744 12.4195 0.599757C12.4682 0.549771 12.5263 0.510445 12.5904 0.484178C12.6544 0.457911 12.7231 0.445254 12.7921 0.446979C12.8612 0.44326 12.9304 0.454611 12.9949 0.480278C13.0595 0.505946 13.1179 0.545344 13.1665 0.595859C13.215 0.646374 13.2524 0.706852 13.2763 0.773281C13.3002 0.83971 13.31 0.910572 13.3051 0.981166ZM12.3767 2.30415H13.2122V7.00699H12.3743L12.3767 2.30415Z" fill="#1C2F76"/>
<path d="M14.3012 7.0072V2.95586H13.6562V2.30435H14.3012V2.0797C14.3012 1.4182 14.4429 0.81662 14.8313 0.437198C15.1343 0.14816 15.5358 -0.00857955 15.9502 0.000362629C16.1935 -0.000314799 16.4348 0.0462755 16.6611 0.137653L16.5463 0.799147C16.3795 0.723853 16.1985 0.687198 16.0162 0.69181C15.3053 0.69181 15.1245 1.33333 15.1245 2.05224V2.30186H16.2311V2.95337H15.1245V7.0072H14.3012Z" fill="#1C2F76"/>
<path d="M17.9847 0.981166C17.9847 1.12119 17.9303 1.25547 17.8334 1.35448C17.7365 1.45349 17.605 1.50911 17.468 1.50911C17.331 1.50911 17.1996 1.45349 17.1027 1.35448C17.0058 1.25547 16.9513 1.12119 16.9513 0.981166C16.9497 0.910763 16.962 0.840745 16.9875 0.775331C17.013 0.709918 17.0513 0.650463 17.0999 0.600549C17.1485 0.550636 17.2065 0.511298 17.2704 0.484905C17.3343 0.458512 17.4028 0.445611 17.4717 0.446979C17.5408 0.44326 17.61 0.454611 17.6745 0.480278C17.7391 0.505946 17.7976 0.545344 17.8461 0.595859C17.8946 0.646374 17.932 0.706852 17.9559 0.773281C17.9798 0.83971 17.9896 0.910572 17.9847 0.981166ZM17.0564 2.30415H17.8894V7.00699H17.0588L17.0564 2.30415Z" fill="#1C2F76"/>
<path d="M19.3614 4.81242C19.3809 5.96816 20.0942 6.44493 20.9346 6.44493C21.3708 6.45695 21.8043 6.37177 22.205 6.19531L22.3467 6.80688C21.8635 7.01277 21.3432 7.11229 20.8198 7.09894C19.4078 7.09894 18.5625 6.14788 18.5625 4.72755C18.5625 3.30721 19.3785 2.19141 20.7148 2.19141C22.2123 2.19141 22.6105 3.54185 22.6105 4.40803C22.6095 4.5416 22.6005 4.67497 22.5836 4.80742L19.3614 4.81242ZM21.8043 4.20085C21.8043 3.65668 21.5869 2.81046 20.6488 2.81046C19.8035 2.81046 19.4273 3.60675 19.3687 4.20085H21.8043Z" fill="#1C2F76"/>
<path d="M27.2274 0.107422V5.79376C27.2274 6.21313 27.2274 6.6874 27.264 7.00941H26.514L26.4749 6.19316H26.4554C26.3061 6.48154 26.0802 6.72099 25.8036 6.88394C25.5269 7.04689 25.2109 7.12673 24.8919 7.11425C23.7852 7.11425 22.9375 6.15322 22.9375 4.72289C22.9375 3.15778 23.8756 2.19424 24.9945 2.19424C25.2667 2.17744 25.5384 2.23521 25.7815 2.36159C26.0246 2.48798 26.2302 2.67839 26.3772 2.91315H26.3968V0.107422H27.2323H27.2274ZM26.3919 4.21866C26.3934 4.09779 26.3811 3.97715 26.3552 3.85921C26.2987 3.57603 26.1477 3.32169 25.928 3.1396C25.7084 2.9575 25.4337 2.85894 25.1508 2.86073C24.2885 2.86073 23.7779 3.63705 23.7779 4.67796C23.7779 5.62901 24.2323 6.4253 25.1337 6.4253C25.4209 6.4235 25.6988 6.32117 25.9211 6.13539C26.1433 5.94961 26.2966 5.69159 26.3552 5.40436C26.3823 5.28322 26.3946 5.15914 26.3919 5.03492V4.21866Z" fill="#1C2F76"/>
<path d="M30.3145 7.00692C30.334 6.68491 30.3511 6.20813 30.3511 5.79127V0.107422H31.1744V3.06292H31.1939C31.352 2.78637 31.5815 2.55954 31.8572 2.40723C32.133 2.25491 32.4444 2.18296 32.7574 2.19924C33.8959 2.19924 34.7118 3.17276 34.6898 4.60058C34.6898 6.28302 33.6564 7.11675 32.6328 7.11675C32.3211 7.13512 32.0108 7.06161 31.7388 6.90495C31.4669 6.74829 31.2446 6.51509 31.0987 6.2331H31.0718L31.0351 7.00692H30.3145ZM31.1768 5.11979C31.18 5.22484 31.1931 5.32934 31.2159 5.43182C31.2852 5.71711 31.4461 5.97047 31.6728 6.15144C31.8995 6.33242 32.179 6.43059 32.4667 6.4303C33.3389 6.4303 33.8592 5.70141 33.8592 4.62305C33.8592 3.67948 33.3853 2.87571 32.496 2.87571C32.2001 2.88166 31.9145 2.98822 31.6845 3.17853C31.4544 3.36885 31.293 3.63207 31.2257 3.92661C31.1971 4.04095 31.1807 4.15812 31.1768 4.27608V5.12229V5.11979Z" fill="#1C2F76"/>
<path d="M35.6017 2.30469L36.6033 5.08545C36.7083 5.39748 36.8231 5.76692 36.8964 6.04899H36.916C37.0015 5.76692 37.0968 5.40746 37.2091 5.06798L38.1179 2.30718H38.9998L37.7539 5.65958C37.1578 7.27212 36.7499 8.10086 36.1806 8.6051C35.8926 8.87793 35.5397 9.06899 35.157 9.15925L34.9494 8.44035C35.2177 8.3497 35.4664 8.20734 35.6823 8.02099C35.9845 7.76331 36.2244 7.43785 36.3834 7.06993C36.4164 7.00682 36.4387 6.93846 36.4494 6.86774C36.4419 6.79037 36.423 6.71461 36.3932 6.64308L34.6953 2.30718H35.6041L35.6017 2.30469Z" fill="#1C2F76"/>
<path d="M13.8314 10.2197L11.3029 16.7772L10.2793 11.2032C10.2384 10.93 10.103 10.6808 9.89777 10.5009C9.69249 10.3209 9.43089 10.222 9.16041 10.2222H5.02689L4.9707 10.5018C5.79959 10.6725 6.60457 10.9475 7.36726 11.3205C7.72394 11.5227 7.82654 11.695 7.94136 12.1693L9.87864 19.8576H12.4487L16.3843 10.2222H13.8314V10.2197Z" fill="#1C2F76"/>
<path d="M17.428 10.2197L15.4199 19.8551H17.8482L19.8539 10.2197H17.428Z" fill="#1C2F76"/>
<path d="M23.0408 12.8905C23.0408 12.546 23.3706 12.1766 24.0718 12.0817C24.8936 11.9981 25.7222 12.1421 26.4708 12.4986L26.8959 10.4567C26.1698 10.1757 25.4003 10.0303 24.6239 10.0273C22.22 10.0273 20.5343 11.3378 20.5172 13.215C20.505 14.6004 21.7265 15.3767 22.6451 15.8385C23.5636 16.3003 23.8983 16.6223 23.8983 17.0467C23.8983 17.6932 23.1434 17.9752 22.4472 17.9877C21.5779 18.0066 20.7184 17.7978 19.9505 17.3811L19.5156 19.4879C20.3768 19.8307 21.2934 20.0043 22.2176 19.9997C24.7656 19.9997 26.4366 18.7041 26.4439 16.7022C26.4439 14.1586 23.0237 14.0188 23.0408 12.883" fill="#1C2F76"/>
<path d="M30.0776 16.4423L31.3675 12.8253L32.1004 16.4423H30.0776ZM31.0011 10.2217C30.7789 10.2193 30.5612 10.2855 30.3764 10.4115C30.1916 10.5375 30.0483 10.7176 29.9652 10.9282L26.3203 19.8546H28.8732L29.3814 18.4168H32.4913L32.782 19.8546H35.0344L33.08 10.2217H31.0011Z" fill="#1C2F76"/>
</svg>
