<svg width="60" height="38" viewBox="0 0 60 38" fill="none" xmlns="http://www.w3.org/2000/svg">
<path d="M60 0H0V38H60V0Z" fill="black"/>
<path d="M16.7535 34.8266V32.6845C16.7686 32.5065 16.7453 32.3274 16.6852 32.1592C16.6252 31.991 16.5297 31.8377 16.4053 31.7097C16.2809 31.5817 16.1304 31.482 15.9642 31.4174C15.7979 31.3527 15.6197 31.3246 15.4417 31.335C15.2061 31.3199 14.9708 31.3682 14.7602 31.475C14.5496 31.5817 14.3713 31.7429 14.2439 31.9419C14.1278 31.7489 13.9619 31.5907 13.7637 31.4839C13.5656 31.3771 13.3424 31.3257 13.1175 31.335C12.918 31.3232 12.7187 31.3629 12.5389 31.4504C12.3592 31.538 12.2049 31.6703 12.0909 31.8348V31.4171H11.3887V34.8337H12.0802V32.8701C12.0676 32.7516 12.0809 32.6318 12.1192 32.519C12.1574 32.4061 12.2198 32.303 12.3019 32.2167C12.384 32.1304 12.4838 32.063 12.5945 32.0193C12.7052 31.9755 12.8241 31.9564 12.9429 31.9633C13.4348 31.9633 13.7128 32.2846 13.7128 32.863V34.8301H14.4044V32.8701C14.3924 32.7518 14.4061 32.6322 14.4446 32.5196C14.4831 32.407 14.5455 32.3042 14.6274 32.218C14.7094 32.1319 14.809 32.0645 14.9194 32.0205C15.0298 31.9766 15.1484 31.9571 15.267 31.9633C15.7732 31.9633 16.0441 32.2846 16.0441 32.863V34.8301L16.7535 34.8266ZM27.8609 31.4171H26.6204V30.3818H25.9253V31.4171H25.2123V32.0383H25.9253V33.6556C25.9253 34.4481 26.2033 34.9194 27.0802 34.9194C27.4078 34.9203 27.729 34.8287 28.007 34.6552L27.7931 34.0483C27.5943 34.1671 27.3686 34.2334 27.1372 34.2411C26.7808 34.2411 26.6168 34.0126 26.6168 33.6698V32.0312H27.8573L27.8609 31.4171ZM34.1917 31.3314C34.0073 31.3276 33.825 31.3716 33.6626 31.4592C33.5002 31.5468 33.3632 31.675 33.2649 31.8312V31.4171H32.5876V34.8337H33.272V32.9058C33.272 32.3418 33.5429 31.9776 34.0277 31.9776C34.1863 31.9754 34.3437 32.0046 34.4911 32.0633L34.7192 31.4171C34.5499 31.3564 34.3715 31.3251 34.1917 31.3243V31.3314ZM24.6206 31.6884C24.2008 31.4387 23.7184 31.3148 23.2304 31.3314C22.3678 31.3314 21.8402 31.7384 21.8402 32.4025C21.8402 32.9594 22.2252 33.295 22.988 33.4021L23.3445 33.4521C23.7508 33.5092 23.9718 33.652 23.9718 33.8448C23.9718 34.109 23.6724 34.2803 23.1662 34.2803C22.7587 34.2947 22.3586 34.1687 22.0327 33.9233L21.6762 34.4588C22.1107 34.7555 22.6262 34.9102 23.152 34.9015C24.1358 34.9015 24.6812 34.4446 24.6812 33.7948C24.6812 33.145 24.2641 32.8987 23.5263 32.7916L23.1698 32.7416C22.849 32.6988 22.5638 32.5988 22.5638 32.3846C22.5638 32.1704 22.8347 31.9633 23.2411 31.9633C23.6167 31.9679 23.9848 32.0687 24.3105 32.2561L24.6206 31.6884ZM34.9581 33.1165C34.9463 33.354 34.9844 33.5914 35.0698 33.8133C35.1552 34.0351 35.2861 34.2367 35.454 34.4048C35.6219 34.573 35.8231 34.7041 36.0447 34.7896C36.2662 34.8752 36.5032 34.9133 36.7404 34.9015C37.1856 34.9242 37.6231 34.779 37.9666 34.4945L37.6102 33.959C37.3537 34.1545 37.0413 34.2622 36.719 34.266C36.4314 34.2383 36.1644 34.1043 35.9702 33.8901C35.7759 33.6759 35.6683 33.3969 35.6683 33.1076C35.6683 32.8182 35.7759 32.5392 35.9702 32.325C36.1644 32.1108 36.4314 31.9768 36.719 31.9491C37.0413 31.9529 37.3537 32.0606 37.6102 32.2561L37.9666 31.7206C37.6231 31.4361 37.1856 31.2909 36.7404 31.3136C36.5032 31.3018 36.2662 31.3399 36.0447 31.4255C35.8231 31.511 35.6219 31.6421 35.454 31.8103C35.2861 31.9784 35.1552 32.18 35.0698 32.4019C34.9844 32.6237 34.9463 32.8611 34.9581 33.0986V33.1165ZM30.1601 31.3314C29.162 31.3314 28.474 32.0455 28.474 33.1165C28.4594 33.3507 28.494 33.5855 28.5754 33.8055C28.6569 34.0256 28.7834 34.2262 28.9469 34.3943C29.1105 34.5625 29.3073 34.6945 29.5249 34.7818C29.7424 34.8692 29.9758 34.9099 30.21 34.9015C30.7186 34.9191 31.2159 34.7488 31.6073 34.4231L31.2508 33.9162C30.9692 34.142 30.6206 34.2676 30.2599 34.2732C30.0102 34.2824 29.7661 34.1977 29.5755 34.0359C29.3849 33.8741 29.2615 33.6467 29.2297 33.3985H31.7784C31.7784 33.3057 31.7784 33.2129 31.7784 33.1129C31.7784 32.0419 31.1296 31.3279 30.1708 31.3279L30.1601 31.3314ZM30.1601 31.9669C30.2761 31.9631 30.3916 31.9826 30.5 32.0242C30.6084 32.0658 30.7073 32.1287 30.791 32.2092C30.8748 32.2898 30.9415 32.3862 30.9874 32.493C31.0333 32.5998 31.0575 32.7146 31.0583 32.8309H29.2297C29.2426 32.5922 29.3484 32.3681 29.5243 32.2066C29.7002 32.0452 29.9322 31.9591 30.1708 31.9669H30.1601ZM20.9241 33.12V31.4171H20.2397V31.8312C20.1071 31.6675 19.9381 31.537 19.7463 31.4502C19.5544 31.3634 19.345 31.3228 19.1346 31.3314C18.6596 31.3314 18.204 31.5204 17.868 31.8569C17.5321 32.1933 17.3434 32.6496 17.3434 33.1254C17.3434 33.6012 17.5321 34.0575 17.868 34.3939C18.204 34.7304 18.6596 34.9194 19.1346 34.9194C19.345 34.928 19.5544 34.8874 19.7463 34.8006C19.9381 34.7138 20.1071 34.5833 20.2397 34.4196V34.8337H20.9241V33.12ZM18.1615 33.12C18.1496 32.9724 18.1685 32.8238 18.217 32.6838C18.2654 32.5438 18.3423 32.4154 18.4428 32.3067C18.5433 32.198 18.6652 32.1113 18.8009 32.0522C18.9365 31.9931 19.0829 31.9629 19.2309 31.9633C19.5185 31.9911 19.7854 32.1251 19.9797 32.3393C20.174 32.5535 20.2816 32.8325 20.2816 33.1218C20.2816 33.4112 20.174 33.6902 19.9797 33.9044C19.7854 34.1186 19.5185 34.2526 19.2309 34.2803C19.0829 34.2808 18.9365 34.2505 18.8009 34.1914C18.6652 34.1323 18.5433 34.0457 18.4428 33.937C18.3423 33.8283 18.2654 33.6998 18.217 33.5598C18.1685 33.4198 18.1496 33.2713 18.1615 33.1236V33.12ZM44.5006 31.335C44.3162 31.3312 44.1339 31.3752 43.9715 31.4628C43.8091 31.5504 43.6721 31.6785 43.5738 31.8348V31.4171H42.8965V34.8337H43.5809V32.9058C43.5809 32.3418 43.8518 31.9776 44.3366 31.9776C44.4952 31.9754 44.6527 32.0046 44.8 32.0633L45.0282 31.4207C44.8588 31.36 44.6804 31.3286 44.5006 31.3279V31.335ZM49.9973 34.341C50.0436 34.3404 50.0896 34.3489 50.1327 34.366C50.1737 34.3827 50.2111 34.407 50.2432 34.4374C50.2746 34.4682 50.2999 34.5045 50.3181 34.5445C50.3361 34.5862 50.3455 34.6312 50.3455 34.6766C50.3455 34.722 50.3361 34.767 50.3181 34.8087C50.2999 34.8487 50.2746 34.885 50.2432 34.9158C50.2111 34.9463 50.1737 34.9705 50.1327 34.9872C50.0901 35.0061 50.0439 35.0158 49.9973 35.0158C49.9297 35.0153 49.8637 34.9955 49.8069 34.9589C49.7501 34.9222 49.7048 34.8701 49.6765 34.8087C49.6586 34.767 49.6494 34.722 49.6494 34.6766C49.6494 34.6312 49.6586 34.5863 49.6765 34.5445C49.6946 34.5045 49.72 34.4682 49.7513 34.4374C49.7834 34.407 49.8209 34.3827 49.8618 34.366C49.9042 34.3453 49.9502 34.3331 49.9973 34.3303V34.341ZM49.9973 34.9444C50.0328 34.9446 50.0681 34.9373 50.1006 34.9229C50.1313 34.9092 50.1591 34.8898 50.1826 34.8658C50.2272 34.8171 50.252 34.7534 50.252 34.6873C50.252 34.6212 50.2272 34.5575 50.1826 34.5088C50.1592 34.4847 50.1314 34.4653 50.1006 34.4517C50.0681 34.4374 50.0328 34.4301 49.9973 34.4303C49.9617 34.4304 49.9266 34.4376 49.8939 34.4517C49.8619 34.4648 49.8328 34.4843 49.8083 34.5088C49.7638 34.5575 49.739 34.6212 49.739 34.6873C49.739 34.7534 49.7638 34.8171 49.8083 34.8658C49.8329 34.8902 49.862 34.9096 49.8939 34.9229C49.9271 34.9345 49.9622 34.9394 49.9973 34.9372V34.9444ZM50.0187 34.5195C50.0519 34.5179 50.0847 34.528 50.1113 34.5481C50.1223 34.5571 50.1309 34.5686 50.1364 34.5817C50.142 34.5947 50.1444 34.6089 50.1434 34.6231C50.1439 34.6349 50.142 34.6467 50.1377 34.6578C50.1334 34.6689 50.1269 34.6789 50.1185 34.6873C50.0978 34.7061 50.0715 34.7174 50.0436 34.7194L50.147 34.8373H50.065L49.9688 34.7194H49.9367V34.8373H49.8689V34.5231L50.0187 34.5195ZM49.9402 34.5802V34.6659H50.0187C50.0326 34.6701 50.0475 34.6701 50.0614 34.6659C50.0639 34.6609 50.0653 34.6554 50.0653 34.6498C50.0653 34.6442 50.0639 34.6387 50.0614 34.6338C50.0639 34.6288 50.0653 34.6233 50.0653 34.6177C50.0653 34.6121 50.0639 34.6066 50.0614 34.6016C50.0475 34.5977 50.0326 34.5977 50.0187 34.6016L49.9402 34.5802ZM41.8735 33.1272V31.4171H41.1891V31.8312C41.0565 31.6675 40.8875 31.537 40.6957 31.4502C40.5038 31.3634 40.2943 31.3228 40.084 31.3314C39.6089 31.3314 39.1533 31.5204 38.8174 31.8569C38.4815 32.1933 38.2928 32.6496 38.2928 33.1254C38.2928 33.6012 38.4815 34.0575 38.8174 34.3939C39.1533 34.7304 39.6089 34.9194 40.084 34.9194C40.2943 34.928 40.5038 34.8874 40.6957 34.8006C40.8875 34.7138 41.0565 34.5833 41.1891 34.4196V34.8337H41.8735V33.1272ZM39.1109 33.1272C39.099 32.9795 39.1179 32.831 39.1663 32.691C39.2148 32.551 39.2916 32.4225 39.3922 32.3138C39.4927 32.2051 39.6146 32.1185 39.7502 32.0594C39.8859 32.0003 40.0323 31.97 40.1803 31.9705C40.4679 31.9982 40.7348 32.1322 40.9291 32.3464C41.1234 32.5606 41.231 32.8396 41.231 33.129C41.231 33.4183 41.1234 33.6973 40.9291 33.9115C40.7348 34.1257 40.4679 34.2597 40.1803 34.2875C40.0323 34.2879 39.8859 34.2577 39.7502 34.1986C39.6146 34.1395 39.4927 34.0528 39.3922 33.9441C39.2916 33.8354 39.2148 33.707 39.1663 33.567C39.1179 33.427 39.099 33.2784 39.1109 33.1308V33.1272ZM48.7603 33.1272V30.0391H48.0759V31.8241C47.9434 31.6603 47.7744 31.5298 47.5825 31.4431C47.3907 31.3563 47.1812 31.3156 46.9709 31.3243C46.4958 31.3243 46.0402 31.5133 45.7043 31.8497C45.3684 32.1862 45.1797 32.6425 45.1797 33.1183C45.1797 33.5941 45.3684 34.0504 45.7043 34.3868C46.0402 34.7232 46.4958 34.9122 46.9709 34.9122C47.1812 34.9209 47.3907 34.8802 47.5825 34.7935C47.7744 34.7067 47.9434 34.5762 48.0759 34.4124V34.8266H48.7603V33.1272ZM45.9977 33.1272C45.9859 32.9795 46.0048 32.831 46.0532 32.691C46.1016 32.551 46.1785 32.4225 46.279 32.3138C46.3795 32.2051 46.5015 32.1185 46.6371 32.0594C46.7728 32.0003 46.9192 31.97 47.0671 31.9705C47.3427 32.013 47.5938 32.1532 47.7747 32.3657C47.9556 32.5782 48.0541 32.8488 48.0524 33.128C48.0507 33.4072 47.9488 33.6765 47.7653 33.8867C47.5818 34.097 47.3289 34.2341 47.0529 34.2732C46.9053 34.2736 46.7592 34.2434 46.6238 34.1846C46.4884 34.1257 46.3666 34.0394 46.2662 33.931C46.1657 33.8227 46.0887 33.6947 46.0401 33.5552C45.9914 33.4156 45.9722 33.2674 45.9835 33.12L45.9977 33.1272Z" fill="white"/>
<path d="M35.6134 5.40527H24.3848V25.6155H35.6134V5.40527Z" fill="#FF5F00"/>
<path d="M25.0971 15.5117C25.0956 13.5656 25.536 11.6447 26.3852 9.89428C27.2344 8.14387 28.47 6.60986 29.9985 5.40832C28.1053 3.91824 25.8318 2.99165 23.4377 2.73445C21.0437 2.47725 18.6256 2.89981 16.46 3.95384C14.2944 5.00787 12.4685 6.65085 11.1911 8.69499C9.91374 10.7391 9.23633 13.102 9.23633 15.5135C9.23633 17.9249 9.91374 20.2878 11.1911 22.3319C12.4685 24.3761 14.2944 26.019 16.46 27.0731C18.6256 28.1271 21.0437 28.5497 23.4377 28.2925C25.8318 28.0352 28.1053 27.1087 29.9985 25.6186C28.4695 24.4167 27.2336 22.8821 26.3844 21.131C25.5352 19.38 25.095 17.4583 25.0971 15.5117Z" fill="#EB001B"/>
<path d="M49.5477 23.4764V23.0622H49.7152V22.9766H49.291V23.0622H49.4586V23.4764H49.5477ZM50.3711 23.4764V22.9766H50.2428L50.0931 23.3336L49.9433 22.9766H49.815V23.4764H49.9041V23.0979L50.0432 23.4228H50.1394L50.2784 23.0979V23.4764H50.3711Z" fill="#F79E1B"/>
<path d="M50.7621 15.5118C50.762 17.9235 50.0844 20.2865 48.8068 22.3307C47.5292 24.3749 45.7031 26.0179 43.5372 27.0717C41.3713 28.1256 38.953 28.5479 36.5588 28.2903C34.1646 28.0328 31.891 27.1057 29.998 25.6152C31.526 24.4126 32.7612 22.8781 33.6106 21.1276C34.46 19.3771 34.9013 17.4563 34.9013 15.5101C34.9013 13.5638 34.46 11.643 33.6106 9.89246C32.7612 8.14197 31.526 6.60753 29.998 5.40492C31.891 3.91438 34.1646 2.98734 36.5588 2.72977C38.953 2.4722 41.3713 2.89449 43.5372 3.94837C45.7031 5.00225 47.5292 6.64519 48.8068 8.6894C50.0844 10.7336 50.762 13.0966 50.7621 15.5083V15.5118Z" fill="#F79E1B"/>
</svg>
