<svg width="47" height="14" viewBox="0 0 47 14" fill="none" xmlns="http://www.w3.org/2000/svg">
<path d="M26.1584 1.48255L23.1887 8.27598H22.8864V0H18.6719V13.981H22.264C23.2065 13.981 24.06 13.3992 24.4513 12.4984L27.421 5.70499H27.7233V13.981H31.9378V0H28.3635C27.421 0.0187664 26.5674 0.581762 26.1584 1.48255Z" fill="#319B42"/>
<path d="M10.3495 1.85864L8.58906 8.29551H8.28675L6.52626 1.85864C6.22395 0.77019 5.28147 0.0195312 4.21451 0.0195312H0V14.0005H4.21451V5.72451H4.51682L6.93526 14.0005H9.94054L12.359 5.72451H12.6613V14.0005H16.8758V0.0195312H12.6613C11.5766 0.0195312 10.6341 0.77019 10.3495 1.85864Z" fill="#319B42"/>
<path d="M33.7344 6.36133V13.9992H37.9489V9.55161H42.4835C44.4574 9.55161 46.1111 8.2192 46.7335 6.38009H33.7344V6.36133Z" fill="#319B42"/>
<path d="M42.4824 0.0195312H33.1465C33.7155 3.26612 36.4185 5.74328 39.655 5.74328H46.9103C46.9637 5.44302 46.9992 5.12399 46.9992 4.78619C46.9992 2.14013 44.972 0.0195312 42.4824 0.0195312Z" fill="url(#paint0_linear)"/>
<defs>
<linearGradient id="paint0_linear" x1="33.1395" y1="2.87439" x2="46.9985" y2="2.87439" gradientUnits="userSpaceOnUse">
<stop stop-color="#00A3E1"/>
<stop offset="0.3042" stop-color="#009ADD"/>
<stop offset="0.7987" stop-color="#0082D4"/>
<stop offset="1" stop-color="#0076CF"/>
</linearGradient>
</defs>
</svg>
