<svg width="60" height="38" viewBox="0 0 60 38" fill="none" xmlns="http://www.w3.org/2000/svg">
<path d="M60 0H0V38H60V0Z" fill="white"/>
<path d="M59 31.8232H1V37.0025H59V31.8232Z" fill="#FAB400"/>
<path d="M59 0.99707H1V6.17637H59V0.99707Z" fill="#1C2F76"/>
<path d="M24.2229 11.9098L18.2229 26.1736H14.3062L11.3618 14.7902C11.1951 14.0978 11.0284 13.8209 10.4729 13.5439C9.58398 13.073 8.11176 12.6022 6.83398 12.3252L6.91731 11.9098H13.2229C14.0284 11.9098 14.7506 12.436 14.9173 13.35L16.4729 21.6037L20.3062 11.9098H24.2229ZM39.5284 21.4929C39.5562 17.7261 34.3062 17.5322 34.3618 15.8427C34.3618 15.3442 34.8618 14.7902 35.9173 14.6518C36.4451 14.5964 37.9173 14.541 39.5562 15.2888L40.1951 12.2698C39.3062 11.9375 38.1673 11.6328 36.7229 11.6328C33.0562 11.6328 30.5006 13.5716 30.4729 16.3413C30.4451 18.3908 32.3062 19.5264 33.6951 20.2188C35.1395 20.9112 35.6118 21.3544 35.6118 21.9914C35.6118 22.9608 34.4729 23.3763 33.3895 23.3763C31.5284 23.4039 30.4451 22.8777 29.584 22.4623L28.9173 25.592C29.7784 25.9798 31.3896 26.3398 33.0284 26.3398C36.9729 26.3675 39.5284 24.4564 39.5284 21.4929ZM49.1951 26.1459H52.6118L49.6118 11.8821H46.4451C45.7229 11.8821 45.1396 12.2975 44.8618 12.9346L39.3062 26.1459H43.1951L43.9729 24.0133H48.7229L49.1951 26.1459ZM45.0562 21.1051L47.0007 15.7596L48.1118 21.1051H45.0562ZM29.5006 11.9098L26.4451 26.1736H22.7507L25.8062 11.9098H29.5006Z" fill="#1C2F76"/>
</svg>
