<svg width="47" height="30" viewBox="0 0 47 30" fill="none" xmlns="http://www.w3.org/2000/svg">
<path d="M47 0H0V30H47V0Z" fill="white"/>
<path d="M46.2165 25.124H0.783203V29.2129H46.2165V25.124Z" fill="#FAB400"/>
<path d="M46.2165 0.787109H0.783203V4.87603H46.2165V0.787109Z" fill="#1C2F76"/>
<path d="M18.9729 9.40225L14.2729 20.6632H11.2048L8.89833 11.6763C8.76778 11.1297 8.63721 10.911 8.20202 10.6923C7.50572 10.3206 6.35249 9.9489 5.35156 9.73024L5.41684 9.40225H10.3562C10.9872 9.40225 11.5529 9.81771 11.6835 10.5393L12.902 17.0553L15.9048 9.40225H18.9729ZM30.9622 16.9679C30.984 13.9941 26.8715 13.841 26.915 12.5072C26.915 12.1136 27.3066 11.6763 28.1335 11.567C28.5469 11.5232 29.7002 11.4795 30.984 12.0699L31.4844 9.68651C30.7881 9.42412 29.896 9.18359 28.7645 9.18359C25.8923 9.18359 23.8904 10.7142 23.8687 12.9008C23.8469 14.5189 25.3048 15.4154 26.3928 15.962C27.5242 16.5087 27.8942 16.8585 27.8942 17.3614C27.8942 18.1267 27.002 18.4547 26.1534 18.4547C24.6955 18.4766 23.8469 18.0611 23.1724 17.7332L22.6502 20.204C23.3247 20.5101 24.5868 20.7944 25.8706 20.7944C28.9604 20.8162 30.9622 19.3075 30.9622 16.9679ZM38.5344 20.6413H41.2108L38.8608 9.38039H36.3803C35.8145 9.38039 35.3576 9.70838 35.14 10.2113L30.7881 20.6413H33.8344L34.4437 18.9576H38.1645L38.5344 20.6413ZM35.2923 16.6617L36.8155 12.4416L37.6858 16.6617H35.2923ZM23.1071 9.40225L20.7136 20.6632H17.8196L20.2131 9.40225H23.1071Z" fill="#1C2F76"/>
</svg>
