<svg width="80" height="25" viewBox="0 0 80 25" fill="none" xmlns="http://www.w3.org/2000/svg">
<path d="M6.9217 17.0168C6.51259 16.7494 6.07192 16.5365 5.61034 16.3834C5.14329 16.2304 4.65559 16.1541 4.16531 16.1574C3.86486 16.1545 3.56519 16.1893 3.273 16.2611C3.02679 16.3198 2.79219 16.4213 2.57938 16.5612C2.39759 16.6816 2.2445 16.8424 2.13142 17.0316C2.02398 17.2189 1.96898 17.433 1.97247 17.6502C1.96711 17.8396 2.0161 18.0263 2.11336 18.1873C2.21601 18.3421 2.35357 18.4692 2.51436 18.5578C2.7155 18.6717 2.93053 18.7576 3.15378 18.8134C3.4336 18.8857 3.71699 18.9425 4.00274 18.9838L4.67829 19.0764C5.06986 19.1323 5.45643 19.2202 5.83432 19.3394C6.19414 19.4499 6.53441 19.6187 6.84223 19.8395C7.13907 20.0497 7.386 20.3257 7.56475 20.647C7.75215 21.0092 7.84428 21.4152 7.83208 21.825C7.8426 22.2982 7.73438 22.7664 7.51778 23.1844C7.31032 23.5739 7.0202 23.9107 6.66883 24.1698C6.29274 24.4458 5.87202 24.6515 5.4261 24.7773C4.93711 24.9183 4.43121 24.9881 3.92326 24.9847C3.57842 24.984 3.23417 24.9555 2.89368 24.8995C2.5376 24.8427 2.18619 24.7585 1.84242 24.6476C1.50035 24.5371 1.16801 24.397 0.848957 24.229C0.544068 24.0696 0.259026 23.8731 0 23.6438L0.856183 22.3584C1.03978 22.5279 1.24229 22.6747 1.45948 22.7955C1.95787 23.0759 2.49702 23.2723 3.05624 23.3771C3.33982 23.431 3.62762 23.4583 3.91604 23.4586C4.21745 23.4609 4.5181 23.4273 4.81196 23.3585C5.06646 23.3011 5.31038 23.2023 5.53447 23.0659C5.72727 22.9486 5.89254 22.7893 6.01856 22.5992C6.13588 22.4154 6.19748 22.2002 6.19558 21.9805C6.19687 21.7921 6.14461 21.6073 6.04517 21.4487C5.94573 21.2902 5.80343 21.1648 5.63563 21.0878C5.11924 20.842 4.56586 20.6879 3.99913 20.6322L3.24049 20.5248C2.87954 20.4733 2.52399 20.3877 2.17839 20.2692C1.8431 20.1569 1.52907 19.9865 1.24995 19.7654C0.976407 19.5461 0.753184 19.2679 0.596076 18.9504C0.42089 18.5804 0.33538 18.1725 0.346809 17.7614C0.338173 17.2979 0.442476 16.8395 0.650266 16.4278C0.850755 16.0422 1.13354 15.7079 1.47755 15.4499C1.84704 15.1747 2.2619 14.9702 2.70221 14.8461C3.18871 14.705 3.69224 14.6351 4.19782 14.6386C4.85052 14.6298 5.50045 14.7274 6.12332 14.9276C6.68876 15.1161 7.22701 15.3815 7.7237 15.7166L6.9217 17.0168ZM12.2394 17.7799C12.6786 17.7744 13.1142 17.8627 13.5183 18.0392C13.8991 18.209 14.2394 18.4618 14.5154 18.78C14.7994 19.1108 15.0189 19.4943 15.162 19.9098C15.325 20.3857 15.4045 20.8873 15.3968 21.3916C15.3968 21.4879 15.3968 21.5805 15.3968 21.6768C15.3968 21.7731 15.3968 21.862 15.3751 21.9472H10.4331C10.469 22.2257 10.556 22.4947 10.6896 22.7399C10.8033 22.9419 10.9528 23.1203 11.1304 23.2659C11.3071 23.4068 11.5081 23.5124 11.7228 23.5771C11.9445 23.6443 12.1745 23.678 12.4056 23.6771C12.7498 23.6757 13.0911 23.6118 13.4135 23.4882C13.7482 23.3635 14.0606 23.1833 14.3383 22.9548L15.0608 24.0216C14.6822 24.3584 14.2393 24.6107 13.7603 24.7625C13.2917 24.9072 12.8047 24.9796 12.3153 24.9773C11.8487 24.9826 11.3853 24.8971 10.9497 24.7254C10.5418 24.5591 10.1726 24.3067 9.86596 23.9846C9.56141 23.6666 9.32299 23.2885 9.16512 22.8733C8.99188 22.3997 8.90612 21.8973 8.91224 21.3916C8.90489 20.8864 8.98816 20.3841 9.15789 19.9098C9.30792 19.4861 9.54019 19.098 9.84067 18.7689C10.135 18.449 10.4921 18.1965 10.8883 18.0281C11.3181 17.8541 11.7774 17.7697 12.2394 17.7799ZM12.2141 19.1097C11.9775 19.1057 11.7423 19.1472 11.5205 19.232C11.3241 19.3092 11.1457 19.4279 10.9967 19.5802C10.8459 19.7356 10.7235 19.9175 10.6354 20.1173C10.5397 20.334 10.474 20.5634 10.4404 20.7989H13.9048C13.8606 20.3274 13.6649 19.8844 13.3485 19.5394C13.1971 19.3935 13.0187 19.2803 12.8239 19.2064C12.629 19.1326 12.4216 19.0997 12.2141 19.1097ZM19.9595 17.7799C20.4399 17.7748 20.9164 17.868 21.3612 18.054C21.7816 18.2332 22.1534 18.5141 22.445 18.8726L21.5165 19.9098C21.3045 19.6963 21.0606 19.5187 20.794 19.3838C20.5226 19.2594 20.2279 19.1974 19.9306 19.2023C19.6626 19.1997 19.3969 19.2539 19.1503 19.3616C18.9124 19.4658 18.6983 19.6197 18.5217 19.8135C18.3401 20.0141 18.1989 20.2495 18.1063 20.5062C17.9059 21.0824 17.9059 21.7118 18.1063 22.288C18.1989 22.5447 18.3401 22.7801 18.5217 22.9807C18.6985 23.1743 18.9125 23.3282 19.1503 23.4326C19.3969 23.5403 19.6626 23.5946 19.9306 23.5919C20.2416 23.5941 20.549 23.5245 20.8301 23.3882C21.095 23.2565 21.3386 23.0841 21.5527 22.877L22.4522 23.9068C22.1573 24.2616 21.7863 24.5418 21.3684 24.7254C20.9262 24.9115 20.452 25.0047 19.974 24.9995C19.4793 25.0072 18.9882 24.914 18.5289 24.7254C18.1166 24.5541 17.7432 24.2972 17.4324 23.9708C17.1215 23.6444 16.8799 23.2556 16.7226 22.8288C16.3877 21.9065 16.3877 20.8914 16.7226 19.9691C16.8799 19.5424 17.1215 19.1536 17.4324 18.8272C17.7432 18.5008 18.1166 18.2438 18.5289 18.0725C18.9813 17.88 19.4661 17.7806 19.9559 17.7799H19.9595ZM29.9158 21.9028C29.9282 22.3836 29.8382 22.8614 29.6521 23.303C29.4919 23.6718 29.2537 23.9995 28.9548 24.2624C28.6645 24.512 28.3278 24.6985 27.965 24.8106C27.2198 25.0444 26.4234 25.0444 25.6782 24.8106C25.3145 24.6981 24.9767 24.5117 24.6848 24.2624C24.3844 24.0009 24.146 23.6729 23.9875 23.303C23.8034 22.8609 23.7147 22.3833 23.7274 21.9028V17.9577H25.1905V21.762C25.184 22.0477 25.2268 22.3324 25.317 22.6029C25.3936 22.8165 25.5172 23.0092 25.6782 23.1659C25.8258 23.3095 26.0039 23.416 26.1984 23.4771C26.6167 23.6057 27.0626 23.6057 27.4809 23.4771C27.6754 23.416 27.8535 23.3095 28.0011 23.1659C28.1627 23.0097 28.2864 22.8169 28.3624 22.6029C28.4465 22.3313 28.4832 22.0466 28.4707 21.762V17.9577H29.9158V21.9028ZM35.2335 17.7799C35.4356 17.7786 35.6374 17.7947 35.8368 17.828C36.0146 17.8578 36.1889 17.9063 36.357 17.9725L35.9958 19.4542C35.8255 19.3675 35.6443 19.3051 35.4575 19.269C35.2698 19.2284 35.0785 19.2073 34.8867 19.206C34.6666 19.2036 34.4482 19.2451 34.2437 19.3283C34.0507 19.4105 33.8789 19.5373 33.7415 19.6987C33.5952 19.8667 33.4834 20.0633 33.4128 20.2766C33.3301 20.527 33.2898 20.7901 33.2935 21.0545V24.8217H31.8485V17.9577H33.2935V18.7282C33.5003 18.4135 33.7879 18.1635 34.1244 18.0058C34.4775 17.8486 34.8595 17.7715 35.2443 17.7799H35.2335ZM40.1285 17.7799C40.5678 17.7744 41.0033 17.8627 41.4074 18.0392C41.7883 18.209 42.1285 18.4618 42.4045 18.78C42.6923 19.1099 42.9155 19.4935 43.062 19.9098C43.2199 20.3866 43.2946 20.8882 43.2823 21.3916C43.2823 21.4879 43.2823 21.5805 43.2823 21.6768C43.2823 21.7731 43.2823 21.862 43.2607 21.9472H38.3331C38.3696 22.2203 38.4554 22.4841 38.586 22.7251C38.7013 22.9334 38.8546 23.117 39.0375 23.2659C39.2143 23.4068 39.4152 23.5124 39.63 23.5771C39.8516 23.6443 40.0817 23.678 40.3128 23.6771C40.657 23.6757 40.9983 23.6118 41.3207 23.4882C41.6554 23.3635 41.9678 23.1833 42.2455 22.9548L42.968 24.0216C42.5894 24.3584 42.1465 24.6107 41.6675 24.7625C41.1989 24.9072 40.7119 24.9796 40.2225 24.9773C39.7508 24.9833 39.2823 24.8965 38.8425 24.7217C38.4346 24.5554 38.0653 24.303 37.7587 23.9809C37.4558 23.6637 37.2186 23.2869 37.0615 22.8733C36.8882 22.3997 36.8025 21.8973 36.8086 21.3916C36.8012 20.8864 36.8845 20.3841 37.0542 19.9098C37.2043 19.4861 37.4365 19.098 37.737 18.7689C38.0314 18.449 38.3884 18.1965 38.7847 18.0281C39.2145 17.8541 39.6738 17.7697 40.1358 17.7799H40.1285ZM40.0996 19.1097C39.863 19.1057 39.6278 19.1472 39.406 19.232C39.2096 19.3092 39.0312 19.4279 38.8822 19.5802C38.7314 19.7356 38.609 19.9175 38.521 20.1173C38.4252 20.334 38.3595 20.5635 38.3259 20.7989H41.7903C41.7491 20.3288 41.5573 19.886 41.2448 19.5394C41.0935 19.3935 40.9151 19.2803 40.7202 19.2064C40.5253 19.1326 40.318 19.0997 40.1105 19.1097H40.0996ZM49.5827 14.6127C50.0045 14.6121 50.4251 14.6605 50.8362 14.7572C51.2233 14.8487 51.5982 14.988 51.9525 15.1721C52.3 15.3486 52.6231 15.5715 52.9135 15.8351C53.196 16.0874 53.4396 16.3822 53.636 16.7093L52.3138 17.6095C52.021 17.1654 51.6265 16.8017 51.165 16.5501C50.6772 16.2934 50.1344 16.166 49.5863 16.1796C49.114 16.1744 48.6452 16.2638 48.2063 16.4426C47.7997 16.6115 47.4309 16.8635 47.1225 17.1835C46.8086 17.5138 46.5628 17.9056 46.4 18.3355C46.0502 19.2908 46.0502 20.3437 46.4 21.299C46.5628 21.7289 46.8086 22.1207 47.1225 22.451C47.4308 22.7711 47.7996 23.0232 48.2063 23.1918C48.6452 23.3707 49.114 23.4601 49.5863 23.4549C50.1228 23.4669 50.6537 23.3407 51.1303 23.0876C51.6069 22.8345 52.0138 22.4628 52.3138 22.0065L53.5962 22.9733C53.3923 23.2859 53.1494 23.5698 52.8737 23.8179C52.5885 24.0687 52.2742 24.2827 51.9381 24.455C51.5936 24.633 51.2298 24.7685 50.8543 24.8588C49.7558 25.1083 48.6099 25.0207 47.5596 24.6069C46.9552 24.3661 46.4059 23.9995 45.9464 23.5303C45.487 23.061 45.1272 22.4993 44.8899 21.8805C44.3886 20.5466 44.3886 19.0693 44.8899 17.7354C45.1272 17.1166 45.487 16.5549 45.9464 16.0857C46.4059 15.6165 46.9552 15.2499 47.5596 15.0091C48.2033 14.7465 48.8899 14.612 49.5827 14.6127ZM58.1915 17.7799C58.686 17.7728 59.1771 17.866 59.6365 18.054C60.0604 18.2225 60.4481 18.4742 60.7781 18.7949C61.1002 19.12 61.3556 19.5079 61.5295 19.9358C61.8918 20.8528 61.8918 21.8784 61.5295 22.7955C61.3557 23.2234 61.1002 23.6113 60.7781 23.9364C60.4481 24.2571 60.0604 24.5087 59.6365 24.6773C58.7151 25.0443 57.6931 25.0443 56.7717 24.6773C56.3486 24.5094 55.9619 24.2576 55.6337 23.9364C55.3133 23.6106 55.0591 23.2228 54.8859 22.7955C54.5236 21.8784 54.5236 20.8528 54.8859 19.9358C55.0564 19.5108 55.3068 19.1244 55.6229 18.7986C55.9511 18.4774 56.3378 18.2256 56.7609 18.0577C57.2155 17.8704 57.7015 17.776 58.1915 17.7799ZM58.1915 19.1875C57.907 19.1842 57.6246 19.2383 57.3606 19.3468C57.1124 19.4495 56.8874 19.6033 56.6995 19.7987C56.5093 19.9974 56.3595 20.2329 56.2587 20.4914C56.0447 21.0651 56.0447 21.6995 56.2587 22.2732C56.3595 22.5317 56.5093 22.7672 56.6995 22.9659C56.8907 23.1624 57.1194 23.3162 57.3714 23.4178C57.9044 23.632 58.4966 23.632 59.0296 23.4178C59.2808 23.3147 59.5088 23.16 59.6995 22.9631C59.8903 22.7663 60.0397 22.5315 60.1386 22.2732C60.3527 21.6995 60.3527 21.0651 60.1386 20.4914C60.0375 20.2322 59.8863 19.9966 59.6943 19.7987C59.5046 19.6038 59.2785 19.4501 59.0296 19.3468C58.7632 19.2373 58.4784 19.1832 58.1915 19.1875ZM66.1716 17.7799C66.576 17.7648 66.978 17.8495 67.3439 18.0267C67.7097 18.204 68.0288 18.4687 68.2742 18.7986V14.5127H69.7192V24.8069H68.2742V23.9846C68.0432 24.2938 67.7483 24.5468 67.4108 24.7254C67.0259 24.9155 66.6022 25.0082 66.1753 24.9958C65.7337 25.0005 65.2959 24.913 64.8885 24.7385C64.481 24.564 64.1125 24.3062 63.8054 23.9809C63.493 23.6536 63.2474 23.2657 63.0829 22.8399C62.7385 21.9066 62.7385 20.8765 63.0829 19.9432C63.2475 19.5175 63.4932 19.1297 63.8054 18.8023C64.1125 18.4769 64.481 18.2192 64.8885 18.0447C65.2959 17.8702 65.7337 17.7826 66.1753 17.7873L66.1716 17.7799ZM66.345 19.1875C66.0543 19.1823 65.7659 19.2417 65.4997 19.3616C65.2593 19.4716 65.044 19.6318 64.8675 19.8321C64.6922 20.0355 64.5572 20.2721 64.4701 20.5285C64.2838 21.0791 64.2838 21.6781 64.4701 22.2287C64.5572 22.4851 64.6922 22.7217 64.8675 22.9251C65.044 23.1254 65.2593 23.2856 65.4997 23.3956C65.7641 23.5087 66.0477 23.5669 66.3342 23.5669C66.6207 23.5669 66.9043 23.5087 67.1687 23.3956C67.4093 23.2891 67.6257 23.1327 67.8045 22.9362C67.9811 22.738 68.1185 22.5065 68.2091 22.2547C68.4057 21.6905 68.4057 21.0741 68.2091 20.5099C68.1174 20.2536 67.9775 20.0183 67.7973 19.8172C67.6186 19.6198 67.4022 19.4622 67.1615 19.3542C66.9047 19.2416 66.6279 19.1848 66.3487 19.1875H66.345ZM74.5781 17.7799C75.0173 17.7743 75.4529 17.8626 75.857 18.0392C76.2379 18.2089 76.5781 18.4617 76.854 18.78C77.1395 19.1104 77.3602 19.494 77.5043 19.9098C77.6653 20.3798 77.7447 20.875 77.7391 21.373C77.7391 21.4693 77.7391 21.562 77.7391 21.6583C77.7391 21.7546 77.7391 21.8435 77.7175 21.9287H72.7754C72.8113 22.2072 72.8984 22.4762 73.0319 22.7214C73.1469 22.9299 73.3003 23.1136 73.4835 23.2622C73.6602 23.4032 73.8612 23.5088 74.076 23.5734C74.2976 23.6406 74.5276 23.6743 74.7588 23.6734C75.103 23.672 75.4442 23.6081 75.7667 23.4845C76.1013 23.3598 76.4138 23.1796 76.6915 22.9511L77.414 24.0179C77.0349 24.3542 76.5922 24.6064 76.1135 24.7588C75.6449 24.9035 75.1578 24.9759 74.6684 24.9736C74.1967 24.9796 73.7283 24.8928 73.2884 24.718C72.8805 24.5517 72.5113 24.2993 72.2047 23.9772C71.9023 23.6609 71.6652 23.2855 71.5074 22.8733C71.3354 22.3995 71.2509 21.897 71.2582 21.3916C71.2497 20.8866 71.3317 20.3844 71.5002 19.9098C71.6516 19.489 71.8838 19.1036 72.183 18.7763C72.4773 18.4564 72.8344 18.2039 73.2306 18.0355C73.6599 17.859 74.1193 17.7721 74.5817 17.7799H74.5781ZM78.4327 24.818V24.4735H78.5664V24.4031H78.2051V24.4735H78.3424V24.818H78.4327ZM79.1011 24.818V24.392H78.9963L78.8735 24.6773L78.7506 24.392H78.6459V24.8069H78.7217V24.4921L78.8373 24.7625H78.9132L79.0288 24.4921V24.8069L79.1011 24.818ZM74.5492 19.1208C74.3126 19.1169 74.0773 19.1583 73.8556 19.2431C73.6592 19.3204 73.4808 19.439 73.3318 19.5913C73.1813 19.747 73.059 19.9288 72.9705 20.1284C72.8749 20.3452 72.8092 20.5746 72.7754 20.81H76.2399C76.2003 20.3355 76.007 19.8882 75.6908 19.5394C75.539 19.393 75.36 19.2795 75.1645 19.2057C74.969 19.1319 74.7609 19.0992 74.5528 19.1097L74.5492 19.1208Z" fill="#F79E1B"/>
<path d="M11.7153 10.6869H10.0824V2.12997L7.12368 9.6719H5.40409L2.45984 2.22628V10.6869H0.8125V0.314864H3.32324L6.2675 7.72344L9.21175 0.314864H11.7225L11.7153 10.6869ZM20.3204 10.6869H18.8104V9.83489C18.5678 10.1457 18.2621 10.3985 17.9145 10.5757C17.5162 10.773 17.0777 10.8696 16.6356 10.8573C16.1774 10.8624 15.7229 10.7718 15.2999 10.5909C14.8769 10.4101 14.4943 10.1427 14.1754 9.80525C13.8615 9.46365 13.616 9.06217 13.4529 8.62358C13.0958 7.65567 13.0958 6.58732 13.4529 5.61941C13.6161 5.18087 13.8616 4.7794 14.1754 4.43774C14.4943 4.10026 14.8769 3.83294 15.2999 3.65207C15.7229 3.4712 16.1774 3.38057 16.6356 3.38572C17.0781 3.37356 17.5169 3.47142 17.9145 3.67095C18.2632 3.85464 18.5688 4.11372 18.8104 4.43033V3.58575H20.3204V10.6869ZM16.8126 4.86003C16.5106 4.85472 16.2111 4.91665 15.9348 5.04154C15.686 5.15615 15.4633 5.32268 15.2809 5.5305C15.0971 5.74705 14.9571 5.99888 14.8691 6.27136C14.6766 6.84255 14.6766 7.46341 14.8691 8.0346C14.957 8.30713 15.097 8.55897 15.2809 8.77546C15.4632 8.98344 15.6859 9.15 15.9348 9.26443C16.2089 9.3817 16.503 9.44208 16.8 9.44208C17.097 9.44208 17.3911 9.3817 17.6652 9.26443C17.914 9.15305 18.1378 8.9904 18.3227 8.78657C18.5118 8.57498 18.6579 8.32691 18.7526 8.05683C18.9545 7.47205 18.9545 6.83391 18.7526 6.24914C18.6576 5.98334 18.5128 5.7392 18.3263 5.5305C18.1413 5.32684 17.9175 5.16421 17.6688 5.05265C17.4 4.92684 17.1081 4.86117 16.8126 4.86003ZM27.2602 5.36381C27.1337 5.28895 27.0035 5.22094 26.87 5.16008C26.7032 5.08379 26.5319 5.01823 26.3571 4.96375C26.1613 4.90286 25.9622 4.85339 25.761 4.81558C25.55 4.77602 25.336 4.75619 25.1216 4.75631C24.7848 4.73644 24.4496 4.81753 24.157 4.98968C24.0493 5.04951 23.9591 5.13765 23.8956 5.24507C23.8321 5.35249 23.7976 5.4753 23.7957 5.60088C23.7921 5.71191 23.8238 5.82114 23.8861 5.91205C23.9501 5.99934 24.0329 6.07032 24.1281 6.11949C24.2425 6.17858 24.364 6.22216 24.4894 6.24914C24.629 6.28124 24.7784 6.30964 24.9373 6.33433L25.6598 6.44546C26.2968 6.51197 26.9064 6.74541 27.43 7.12335C27.639 7.29034 27.8059 7.50637 27.9165 7.75326C28.0272 8.00015 28.0784 8.27069 28.0658 8.54209C28.0692 8.8675 27.9961 9.18896 27.8527 9.47928C27.7067 9.7717 27.4965 10.0253 27.2385 10.2201C26.9399 10.4402 26.6044 10.6022 26.2487 10.698C25.814 10.817 25.3655 10.8743 24.9156 10.8684C24.7374 10.8684 24.5303 10.8573 24.2943 10.835C24.0409 10.8096 23.7898 10.765 23.5429 10.7017C23.2665 10.6308 22.9959 10.5379 22.7336 10.4239C22.4609 10.299 22.2038 10.1411 21.9678 9.95342L22.6578 8.79769C22.7876 8.89966 22.9239 8.99248 23.066 9.07551C23.2249 9.16769 23.3918 9.24457 23.5645 9.30517C23.7646 9.37575 23.97 9.42903 24.1787 9.46446C24.4307 9.50613 24.6857 9.52596 24.9409 9.52373C25.3464 9.54833 25.7513 9.46809 26.1186 9.29036C26.2363 9.23386 26.3361 9.14443 26.4064 9.03237C26.4767 8.9203 26.5147 8.79016 26.516 8.65692C26.5145 8.55498 26.487 8.45521 26.4363 8.36749C26.3856 8.27978 26.3135 8.20717 26.227 8.15685C25.9466 7.99703 25.6363 7.89983 25.3166 7.87161L24.5941 7.7753C23.9573 7.72169 23.3491 7.48121 22.842 7.0826C22.6475 6.91169 22.4929 6.69811 22.3897 6.45766C22.2865 6.21721 22.2374 5.95604 22.2459 5.69349C22.2377 5.35855 22.3058 5.02625 22.4446 4.72297C22.5785 4.44575 22.774 4.20467 23.0154 4.01915C23.2856 3.81308 23.5906 3.65988 23.915 3.56723C24.3029 3.45606 24.7043 3.40242 25.1071 3.40795C25.6326 3.40544 26.1561 3.47395 26.6641 3.61168C27.111 3.72709 27.5376 3.91331 27.9285 4.16362L27.2602 5.36381ZM34.4348 4.99338H31.7795V8.08646C31.7753 8.2925 31.8046 8.49782 31.8662 8.69397C31.9152 8.84654 31.9953 8.98669 32.1011 9.10514C32.2013 9.21176 32.3253 9.29185 32.4623 9.33851C32.6003 9.38876 32.7458 9.41384 32.8922 9.4126C33.1394 9.41134 33.3843 9.36363 33.6147 9.27184C33.8505 9.18169 34.0768 9.06752 34.2903 8.93104L34.89 10.1683C34.5896 10.3653 34.2684 10.5268 33.9326 10.6498C33.5548 10.7934 33.1542 10.8638 32.7513 10.8573C32.4177 10.8779 32.0835 10.8292 31.7687 10.714C31.454 10.5987 31.1652 10.4194 30.9197 10.1868C30.4911 9.75463 30.2767 9.0644 30.2767 8.1161V4.99338H28.8967V3.58575H30.2767V1.43356H31.794V3.58575H34.4492L34.4348 4.99338ZM39.0842 3.40054C39.5396 3.3952 39.9912 3.4873 40.41 3.67095C40.8043 3.84551 41.1568 4.10589 41.4432 4.43403C41.7388 4.77885 41.9669 5.17878 42.1151 5.612C42.2809 6.0988 42.3628 6.61146 42.3572 7.12705C42.3572 7.22707 42.3572 7.32338 42.3572 7.4234C42.3572 7.52341 42.3572 7.61602 42.3355 7.70492H37.2129C37.2504 7.99391 37.3411 8.27297 37.4802 8.52727C37.6004 8.74281 37.7598 8.93269 37.9498 9.08662C38.1331 9.23244 38.3414 9.34175 38.564 9.4089C38.7984 9.48015 39.042 9.51511 39.2865 9.51262C39.6431 9.51081 39.9965 9.44434 40.3305 9.31629C40.6769 9.18728 41.0004 9.00082 41.2878 8.76435L42.0393 9.87564C41.6473 10.2276 41.1885 10.4925 40.6918 10.6535C40.2055 10.8034 39.7003 10.8783 39.1926 10.8758C38.6986 10.8835 38.2079 10.7929 37.7475 10.6091C37.3283 10.4441 36.947 10.1918 36.6276 9.86823C36.3105 9.53058 36.0646 9.1296 35.9051 8.69026C35.7264 8.20004 35.6382 7.68 35.645 7.15669C35.6392 6.63893 35.7249 6.12438 35.8979 5.63793C36.0585 5.19811 36.3043 4.79615 36.6204 4.45626C36.9253 4.12657 37.2946 3.86655 37.7042 3.69318C38.141 3.50369 38.6099 3.40425 39.0842 3.40054ZM39.0553 4.77853C38.8089 4.77378 38.5638 4.8165 38.3328 4.90448C38.1287 4.98751 37.9441 5.11373 37.7909 5.27491C37.6394 5.4368 37.5171 5.62492 37.4296 5.83055C37.3303 6.05557 37.2622 6.29371 37.2273 6.53807H40.8218C40.7717 6.05516 40.5687 5.60238 40.2438 5.24898C40.0874 5.09166 39.9013 4.96877 39.6969 4.88787C39.4925 4.80697 39.2742 4.76977 39.0553 4.77853ZM47.5954 3.40054C47.8047 3.39882 48.0137 3.41492 48.2204 3.44869C48.4044 3.48053 48.5847 3.53142 48.7587 3.60057L48.3974 5.13415C48.2213 5.04436 48.0342 4.97956 47.8411 4.94152C47.6462 4.89915 47.4478 4.87681 47.2486 4.87484C47.0212 4.87238 46.7954 4.91515 46.5839 5.00079C46.3853 5.08207 46.2073 5.20876 46.0637 5.37122C45.9125 5.54592 45.797 5.74999 45.7241 5.97131C45.6386 6.23137 45.5971 6.50447 45.6013 6.77885V10.6869H44.0912V3.58575H45.5868V4.38588C45.8018 4.06279 46.0992 3.8065 46.4466 3.64502C46.8081 3.48027 47.1998 3.3969 47.5954 3.40054ZM52.765 3.40054C53.2603 3.39711 53.7514 3.49404 54.2101 3.68577C54.6497 3.86995 55.039 4.16109 55.3444 4.53405L54.3762 5.59348C54.1514 5.37068 53.8927 5.18678 53.6104 5.04895C53.3288 4.91967 53.023 4.85518 52.7144 4.86003C52.4364 4.85766 52.1608 4.91442 51.9052 5.02672C51.6592 5.13421 51.4377 5.29318 51.255 5.49346C51.0703 5.70005 50.9267 5.94165 50.8323 6.20468C50.6233 6.80347 50.6233 7.45804 50.8323 8.05683C50.9282 8.32301 51.0742 8.5672 51.2622 8.77546C51.445 8.97558 51.6665 9.13452 51.9125 9.2422C52.1681 9.35451 52.4436 9.41126 52.7217 9.4089C53.0438 9.4104 53.3622 9.33827 53.6537 9.19775C53.9342 9.06286 54.1926 8.88416 54.4196 8.66804L55.3516 9.73487C55.0409 10.1051 54.6499 10.3956 54.2101 10.5832C53.7518 10.7762 53.2604 10.8732 52.765 10.8684C52.253 10.8755 51.7447 10.7786 51.2694 10.5832C50.8393 10.4072 50.4496 10.1414 50.125 9.80282C49.8004 9.46422 49.5479 9.06012 49.3836 8.61618C49.0368 7.66038 49.0368 6.60854 49.3836 5.65274C49.5481 5.20891 49.8006 4.80492 50.1252 4.46634C50.4498 4.12775 50.8394 3.86196 51.2694 3.68577C51.7447 3.49033 52.253 3.39339 52.765 3.40054ZM63.4077 10.6869H61.8976V9.83489C61.655 10.1456 61.3493 10.3984 61.0017 10.5757C60.6035 10.773 60.1649 10.8696 59.7229 10.8573C59.2652 10.8619 58.8114 10.771 58.3891 10.5902C57.9668 10.4093 57.5848 10.1423 57.2663 9.80525C56.9524 9.46365 56.7069 9.06217 56.5438 8.62358C56.1867 7.65567 56.1867 6.58732 56.5438 5.61941C56.707 5.18091 56.9525 4.77946 57.2663 4.43774C57.5848 4.10072 57.9668 3.83366 58.3891 3.6528C58.8114 3.47195 59.2652 3.38108 59.7229 3.38572C60.1653 3.37356 60.6041 3.47142 61.0017 3.67095C61.3503 3.85474 61.656 4.11381 61.8976 4.43033V3.58575H63.4077V10.6869ZM59.8999 4.86003C59.5979 4.85484 59.2984 4.91676 59.022 5.04154C58.7733 5.15625 58.5506 5.32276 58.3681 5.5305C58.1846 5.74722 58.0446 5.999 57.9563 6.27136C57.7636 6.8425 57.7636 7.46346 57.9563 8.0346C58.0445 8.30701 58.1845 8.5588 58.3681 8.77546C58.5505 8.98336 58.7732 9.14991 59.022 9.26443C59.2962 9.3815 59.5902 9.44177 59.8872 9.44177C60.1842 9.44177 60.4783 9.3815 60.7524 9.26443C61.0012 9.15296 61.225 8.99032 61.4099 8.78657C61.5991 8.57503 61.7452 8.32695 61.8398 8.05683C62.0424 7.47216 62.0424 6.83381 61.8398 6.24914C61.745 5.98326 61.6002 5.73908 61.4135 5.5305C61.2284 5.32692 61.0047 5.1643 60.756 5.05265C60.4872 4.92694 60.1954 4.86128 59.8999 4.86003ZM69.1408 3.40054C69.3501 3.39882 69.5592 3.41492 69.7658 3.44869C69.9498 3.48053 70.1301 3.53142 70.3041 3.60057L69.9428 5.13415C69.7668 5.04436 69.5796 4.97956 69.3865 4.94152C69.1917 4.8992 68.9932 4.87686 68.794 4.87484C68.5666 4.87228 68.3409 4.91506 68.1293 5.00079C67.9307 5.08207 67.7528 5.20876 67.6091 5.37122C67.4578 5.54586 67.3423 5.74995 67.2695 5.97131C67.1841 6.23137 67.1425 6.50447 67.1467 6.77885V10.6869H65.6367V3.58575H67.125V4.38588C67.3399 4.06266 67.6373 3.80634 67.9848 3.64502C68.3496 3.4787 68.7452 3.3953 69.1445 3.40054H69.1408ZM74.1009 3.40054C74.5434 3.38837 74.9822 3.48624 75.3798 3.68577C75.7284 3.86955 76.0341 4.12862 76.2757 4.44515V0H77.7858V10.6869H76.2757V9.83489C76.0331 10.1456 75.7273 10.3984 75.3798 10.5757C74.9816 10.773 74.543 10.8696 74.1009 10.8573C73.6433 10.8619 73.1895 10.771 72.7672 10.5902C72.3449 10.4093 71.9628 10.1423 71.6444 9.80525C71.3305 9.46359 71.085 9.06212 70.9219 8.62358C70.5647 7.65567 70.5647 6.58732 70.9219 5.61941C71.0851 5.18091 71.3306 4.77946 71.6444 4.43774C71.9628 4.10072 72.3449 3.83366 72.7672 3.6528C73.1895 3.47195 73.6433 3.38108 74.1009 3.38572V3.40054ZM79.5523 10.0312C79.612 10.0314 79.671 10.044 79.7257 10.0683C79.7781 10.091 79.8259 10.1237 79.8666 10.1646C79.908 10.2058 79.9411 10.2548 79.9641 10.309C79.9875 10.3646 79.9995 10.4245 79.9995 10.485C79.9995 10.5455 79.9875 10.6054 79.9641 10.6609C79.941 10.7151 79.9079 10.7641 79.8666 10.8054C79.8258 10.8461 79.7781 10.8788 79.7257 10.9017C79.671 10.9262 79.612 10.9388 79.5523 10.9388C79.4641 10.9396 79.3776 10.9136 79.3037 10.8642C79.2298 10.8148 79.1717 10.7441 79.1369 10.6609C79.1135 10.6054 79.1015 10.5455 79.1015 10.485C79.1015 10.4245 79.1135 10.3646 79.1369 10.309C79.1824 10.1998 79.268 10.1133 79.3753 10.0683C79.4324 10.0434 79.4939 10.0308 79.5559 10.0312H79.5523ZM79.5523 10.835C79.5981 10.8361 79.6437 10.8272 79.686 10.8091C79.7262 10.7914 79.7629 10.7663 79.7943 10.735C79.8543 10.667 79.8874 10.5785 79.8874 10.4868C79.8874 10.3952 79.8543 10.3067 79.7943 10.2387C79.7629 10.2074 79.7262 10.1823 79.686 10.1646C79.6436 10.1466 79.5981 10.1377 79.5523 10.1386C79.5053 10.138 79.4587 10.1469 79.415 10.1646C79.366 10.1901 79.3233 10.2268 79.2901 10.2718C79.257 10.3169 79.2344 10.3691 79.2239 10.4245C79.2134 10.4799 79.2155 10.537 79.2298 10.5914C79.2441 10.6459 79.2704 10.6963 79.3066 10.7387C79.3381 10.77 79.3748 10.7951 79.415 10.8128C79.4601 10.8298 79.508 10.8373 79.5559 10.835H79.5523ZM79.5776 10.272C79.6215 10.2692 79.665 10.2823 79.7004 10.309C79.7144 10.3205 79.7257 10.3352 79.7332 10.3519C79.7407 10.3687 79.7443 10.3869 79.7438 10.4053C79.7443 10.4211 79.7417 10.4368 79.7361 10.4514C79.7306 10.4661 79.7221 10.4794 79.7113 10.4905C79.6841 10.5149 79.6497 10.5292 79.6137 10.5313L79.7474 10.6906H79.6426L79.5198 10.535H79.4801V10.6906H79.4078V10.2794L79.5776 10.272ZM79.4764 10.3498V10.4609H79.5776C79.5953 10.4662 79.6141 10.4662 79.6318 10.4609C79.6385 10.4565 79.6439 10.4505 79.6477 10.4434C79.6515 10.4363 79.6535 10.4283 79.6535 10.4202C79.6535 10.4121 79.6515 10.4041 79.6477 10.3969C79.6439 10.3898 79.6385 10.3838 79.6318 10.3794C79.6141 10.3742 79.5953 10.3742 79.5776 10.3794L79.4764 10.3498ZM74.2852 4.86003C73.9832 4.85484 73.6837 4.91676 73.4073 5.04154C73.1586 5.15615 72.9359 5.32268 72.7534 5.5305C72.5699 5.74722 72.4299 5.999 72.3416 6.27136C72.1489 6.8425 72.1489 7.46346 72.3416 8.0346C72.4298 8.30701 72.5698 8.5588 72.7534 8.77546C72.9357 8.98344 73.1585 9.15 73.4073 9.26443C73.6815 9.3815 73.9755 9.44177 74.2725 9.44177C74.5695 9.44177 74.8636 9.3815 75.1377 9.26443C75.3888 9.14535 75.6127 8.97375 75.7952 8.76064C75.9803 8.55645 76.125 8.31745 76.2215 8.05683C76.424 7.47216 76.424 6.83381 76.2215 6.24914C76.1289 5.97668 75.9839 5.72603 75.7952 5.51198C75.6101 5.3084 75.3864 5.14578 75.1377 5.03413C74.8686 4.9153 74.5781 4.85598 74.2852 4.86003Z" fill="#EB001B"/>
</svg>
