<svg width="161" height="200" viewBox="0 0 161 200" fill="none" xmlns="http://www.w3.org/2000/svg">
<path d="M160.959 172.883L149.441 43.9264C149.194 41.0634 146.768 38.8957 143.929 38.8957H120.236C119.907 17.3824 102.219 0 80.5 0C58.781 0 41.0933 17.3824 40.7642 38.8957H17.0708C14.1914 38.8957 11.8056 41.0634 11.5588 43.9264L0.0411353 172.883C0.0411353 173.047 0 173.211 0 173.374C0 188.057 13.5332 200 30.1926 200H130.807C147.467 200 161 188.057 161 173.374C161 173.211 161 173.047 160.959 172.883ZM80.5 11.0429C96.0899 11.0429 108.8 23.4765 109.13 38.8957H51.8705C52.1995 23.4765 64.9101 11.0429 80.5 11.0429ZM130.807 188.957H30.1926C19.7445 188.957 11.2708 182.086 11.1063 173.62L22.1303 49.9795H40.723V66.7485C40.723 69.8159 43.1911 72.2699 46.2762 72.2699C49.3613 72.2699 51.8293 69.8159 51.8293 66.7485V49.9795H109.13V66.7485C109.13 69.8159 111.598 72.2699 114.683 72.2699C117.768 72.2699 120.236 69.8159 120.236 66.7485V49.9795H138.829L149.894 173.62C149.729 182.086 141.214 188.957 130.807 188.957Z" fill="#A6A7AD"/>
</svg>
