<svg width="21" height="26" viewBox="0 0 21 26" fill="none" xmlns="http://www.w3.org/2000/svg">
<path d="M20.9946 22.4748L19.4923 5.71043C19.4601 5.33824 19.1436 5.05644 18.7734 5.05644H15.6829C15.64 2.25971 13.3329 0 10.5 0C7.66709 0 5.35999 2.25971 5.31707 5.05644H2.22662C1.85105 5.05644 1.53986 5.33824 1.50766 5.71043L0.00536548 22.4748C0.00536548 22.4961 0 22.5174 0 22.5386C0 24.4474 1.7652 26 3.93817 26H17.0618C19.2348 26 21 24.4474 21 22.5386C21 22.5174 21 22.4961 20.9946 22.4748ZM10.5 1.43558C12.5335 1.43558 14.1914 3.05194 14.2343 5.05644H6.76571C6.80863 3.05194 8.46653 1.43558 10.5 1.43558ZM17.0618 24.5644H3.93817C2.57537 24.5644 1.47011 23.6712 1.44865 22.5705L2.88656 6.49734H5.3117V8.6773C5.3117 9.07607 5.63362 9.39509 6.03602 9.39509C6.43843 9.39509 6.76035 9.07607 6.76035 8.6773V6.49734H14.2343V8.6773C14.2343 9.07607 14.5562 9.39509 14.9586 9.39509C15.361 9.39509 15.6829 9.07607 15.6829 8.6773V6.49734H18.1081L19.5514 22.5705C19.5299 23.6712 18.4193 24.5644 17.0618 24.5644Z" fill="#212233"/>
</svg>
