<svg width="30" height="30" viewBox="0 0 30 30" fill="none" xmlns="http://www.w3.org/2000/svg">
<rect width="30" height="30" fill="#FDA9BD"/>
<path fill-rule="evenodd" clip-rule="evenodd" d="M20.9506 16.2226C21.4979 16.7377 22.0756 17.2223 22.5665 17.7892C22.7834 18.0412 22.9887 18.3012 23.1457 18.5936C23.3682 19.0093 23.1667 19.4667 22.78 19.4915L20.3762 19.4905C19.7563 19.5401 19.2617 19.2995 18.8458 18.8909C18.513 18.5642 18.2048 18.2165 17.8848 17.8787C17.7536 17.7407 17.6163 17.6108 17.4522 17.5081C17.1241 17.3028 16.8393 17.3656 16.6517 17.6955C16.4608 18.031 16.4174 18.4025 16.3987 18.7765C16.3729 19.322 16.2018 19.4655 15.6333 19.4904C14.4181 19.5457 13.2649 19.3685 12.1937 18.7777C11.2492 18.2568 10.5168 17.5215 9.87929 16.6891C8.63811 15.0681 7.68761 13.287 6.83333 11.456C6.64104 11.0434 6.78167 10.822 7.25391 10.8141C8.03809 10.7995 8.82216 10.8005 9.60726 10.8131C9.92597 10.8176 10.137 10.9938 10.26 11.284C10.6843 12.2895 11.2034 13.2461 11.8551 14.1329C12.0286 14.3689 12.2055 14.605 12.4575 14.7712C12.7363 14.9552 12.9485 14.8942 13.0797 14.5949C13.1629 14.4051 13.1993 14.2007 13.2181 13.9974C13.2802 13.2981 13.2884 12.6 13.1794 11.9032C13.1125 11.4683 12.8584 11.1868 12.4081 11.1045C12.1784 11.0625 12.2126 10.9801 12.3238 10.8537C12.517 10.6357 12.6988 10.5 13.061 10.5H15.7776C16.2053 10.5814 16.3003 10.7665 16.3588 11.1813L16.3612 14.0899C16.3565 14.2504 16.4444 14.7269 16.7444 14.8332C16.9846 14.9089 17.1429 14.7237 17.287 14.5769C17.9374 13.9115 18.4017 13.1252 18.8164 12.3109C19.0004 11.9529 19.1587 11.5811 19.312 11.2095C19.4257 10.9339 19.604 10.7982 19.9262 10.8042L22.5408 10.8065C22.6183 10.8065 22.6967 10.8076 22.7718 10.8199C23.2124 10.8923 23.3331 11.075 23.197 11.4897C22.9826 12.1403 22.5655 12.6824 22.1576 13.2271C21.7216 13.8086 21.2552 14.3703 20.8228 14.9552C20.4256 15.4894 20.4571 15.7587 20.9506 16.2226Z" fill="white"/>
</svg>
